<svg viewBox="0 0 149 43" xmlns="http://www.w3.org/2000/svg"><defs><linearGradient x1="29.435%" y1="45.318%" x2="80.631%" y2="58.76%" id="a"><stop stop-color="#FEBE2D" offset="0%"/><stop stop-color="#F85E23" offset="100%"/></linearGradient><linearGradient x1="-33.94%" y1="50.041%" x2="153.691%" y2="50.041%" id="b"><stop stop-color="#FBAA19" offset="0%"/><stop stop-color="#EF3E23" offset="100%"/></linearGradient><linearGradient x1="32.891%" y1="96.667%" x2="67.113%" y2="3.111%" id="c"><stop stop-color="#F78D1E" offset="0%"/><stop stop-color="#F37121" offset="100%"/></linearGradient><linearGradient x1="14.403%" y1="75.177%" x2="63.227%" y2="12.448%" id="d"><stop stop-color="#FEBE2D" offset="0%"/><stop stop-color="#F04E23" offset="100%"/></linearGradient><linearGradient x1="69.88%" y1="3.214%" x2="33.101%" y2="81.581%" id="e"><stop stop-color="#EA4425" offset="0%"/><stop stop-color="#FDBB27" offset="100%"/></linearGradient><linearGradient x1="-40.127%" y1="49.989%" x2="144.708%" y2="49.989%" id="f"><stop stop-color="#F47920" offset="0%"/><stop stop-color="#E93825" offset="100%"/></linearGradient><linearGradient x1="-143.227%" y1="49.917%" x2="243.364%" y2="49.917%" id="g"><stop stop-color="#FDCA0B" offset="0%"/><stop stop-color="#F5841F" offset="100%"/></linearGradient><linearGradient x1="39.677%" y1="-25.013%" x2="63.887%" y2="131.608%" id="h"><stop stop-color="#E73C25" offset="0%"/><stop stop-color="#FAA21B" offset="100%"/></linearGradient><linearGradient x1="-562.994%" y1="49.998%" x2="562.905%" y2="49.998%" id="i"><stop stop-color="#FDBA12" offset="0%"/><stop stop-color="#F7921E" offset="100%"/></linearGradient><linearGradient x1="1.983%" y1="41.501%" x2="106.167%" y2="60.044%" id="j"><stop stop-color="#FEBE2D" offset="0%"/><stop stop-color="#F04E23" offset="100%"/></linearGradient></defs><g fill="none" fill-rule="evenodd"><path d="M125.05 30.91a1.1 1.1 0 0 0-1 1c-.08.59.24 1 .75 1a1.12 1.12 0 0 0 1-1 .78.78 0 0 0-.76-1h.01Zm7.36-5.71a3.13 3.13 0 0 0-2.73 1.48l.2-1.4h-1.71l-1.09 7.53h1.71l.54-3.7a2.28 2.28 0 0 1 2.15-2.17c1 0 1.47.65 1.32 1.7l-.6 4.17h1.72l.68-4.7c.26-1.79-.57-2.91-2.19-2.91Zm7.21 0a4.22 4.22 0 0 0-4.13 3.85c-.32 2.26.88 3.81 3.07 3.81a4.35 4.35 0 0 0 3.14-1.29l-.77-1a2.93 2.93 0 0 1-2 .84 1.67 1.67 0 0 1-1.76-1.71h5.19c.57-2.74-.25-4.47-2.72-4.47l-.02-.03Zm-2.33 3.24a2.27 2.27 0 0 1 2.14-1.82 1.47 1.47 0 0 1 1.57 1.84l-3.71-.02Zm9.83 2.56a2.49 2.49 0 0 1-1 .31c-.46 0-.7-.24-.6-1l.49-3.4h2l.19-1.33h-2l.3-2.08h-1.69l-.3 2.08h-1l-.18 1.33h1l-.53 3.72c-.23 1.55.59 2.26 1.74 2.26a3.66 3.66 0 0 0 1.84-.55l-.26-1.34Z" fill="url(#a)"/><path d="M44.62 22.83a1.33 1.33 0 1 1 .02 2.66 1.33 1.33 0 0 1-.02-2.66Zm13.21-3.69a6.64 6.64 0 0 1 3.91-1.36 5.75 5.75 0 0 1 4.39 1.94 7.1 7.1 0 0 1 1.37 5.8 8.87 8.87 0 0 1-6 7.55 7.72 7.72 0 0 1-2.07.29 4.51 4.51 0 0 1-3.91-1.93l-.18 1.28a.26.26 0 0 1-.25.21H52a.21.21 0 0 1-.17-.07.23.23 0 0 1 0-.18l1.07-7.38h-4a1.14 1.14 0 0 1-1.13-1.13A1.14 1.14 0 0 1 48.82 23h8.62a5.2 5.2 0 0 0-1.12 2.56c-.31 2.15.76 4.16 3.09 4.16a4.71 4.71 0 0 0 4.46-4.2c.3-2.11-.91-4.11-3.15-4.11h-9.83a1.14 1.14 0 0 1-1.13-1.14 1.14 1.14 0 0 1 1.13-1.13h2.85l.81-5.66a.26.26 0 0 1 .25-.21H58a.24.24 0 0 1 .16.07.23.23 0 0 1 0 .18l-.81 5.62h.48Zm19.56 12.48a5.29 5.29 0 0 1-4.14 1.74c-3.94 0-5-2.89-4.51-6.31L70 18.44a.27.27 0 0 1 .25-.22h3.15a.21.21 0 0 1 .16.08.21.21 0 0 1 0 .17l-1.12 7.75c-.26 1.84 0 3.5 2.15 3.49 2.15-.01 3-1.48 3.33-3.42l1.13-7.85a.27.27 0 0 1 .25-.22h3.17a.21.21 0 0 1 .16.08.21.21 0 0 1 0 .17l-2 14.24a.26.26 0 0 1-.25.21h-3a.21.21 0 0 1-.17-.07.23.23 0 0 1-.05-.18l.15-1.05h.08Zm10.86-12.11a5.36 5.36 0 0 1 4.12-1.73c3.91 0 5 2.88 4.48 6.34l-1.24 8.59a.24.24 0 0 1-.24.21H92.2a.19.19 0 0 1-.16-.07.2.2 0 0 1-.05-.18L93.1 25c.26-1.81.07-3.53-2.12-3.52-2.19.01-3 1.51-3.3 3.42l-1.14 7.86a.25.25 0 0 1-.24.21h-3.17a.22.22 0 0 1-.17-.07.22.22 0 0 1 0-.18l2-14.23a.26.26 0 0 1 .25-.22h3a.19.19 0 0 1 .16.08.18.18 0 0 1 .05.17l-.15 1-.02-.01Zm14.89 0a5.36 5.36 0 0 1 4.12-1.73c3.91 0 5 2.88 4.48 6.34l-1.24 8.59a.25.25 0 0 1-.24.21h-3.17a.19.19 0 0 1-.16-.07.2.2 0 0 1-.05-.18L108 25c.26-1.81.07-3.53-2.12-3.52-2.19.01-3 1.51-3.31 3.42l-1.13 7.86a.25.25 0 0 1-.24.21H98a.22.22 0 0 1-.17-.07.22.22 0 0 1 0-.18l2-14.23a.26.26 0 0 1 .24-.22h3a.19.19 0 0 1 .16.08.21.21 0 0 1 .05.17l-.15 1 .01-.01Zm12.4 12.62-3-13.61a.21.21 0 0 1 0-.2.24.24 0 0 1 .19-.1h3.38a.21.21 0 0 1 .21.17l1.75 8.81 4.26-8.83a.24.24 0 0 1 .22-.15H126a.2.2 0 0 1 .18.11.22.22 0 0 1 0 .22l-9.78 19.21a.24.24 0 0 1-.22.14h-3.39a.19.19 0 0 1-.18-.11.22.22 0 0 1 0-.22l2.93-5.44Z" fill="#183D6D"/><path d="m21 6.85 9.87 5.36L21.75 0A6.8 6.8 0 0 0 21 6.85Z" fill="url(#b)"/><path d="M16.54 26.73a2.25 2.25 0 1 1 0 4.5 2.25 2.25 0 0 1 0-4.5Z" fill="url(#c)"/><path d="m9.67 1.79 27.64 15a1.34 1.34 0 0 1 0 2.41 21.49 21.49 0 0 1-6.77 2.64l-5.75 11.8s-1.82 4.14-6.83 2.55c2.1-2.1 4.64-4 4.64-7.23a6.07 6.07 0 0 0-12.14 0c0 4.22 4.16 6 6.47 8.93a3.8 3.8 0 0 1-.33 4.79c-2.87-2.84-8.42-7.63-10.7-10.77a9.1 9.1 0 0 1-1.95-5.55 10.45 10.45 0 0 1 7.38-9.46 12.05 12.05 0 0 1 3.88-.47 12.58 12.58 0 0 1 5.2 1.57c2.45 1.44 3.64 1.06 5.33-.36 1-.82 2.09-3.49.4-4.11a12.14 12.14 0 0 0-1.69-.42c-3.14-.61-8.63-1.19-10.65-2.34C10.59 9 8.43 5.35 9.67 1.79Z" fill="url(#d)"/><path d="M22.55 28.99C23.83 22.26 17 15.84 11.76 16.8l.35-.08c-.28.06-.55.13-.81.21a10.45 10.45 0 0 0-7.38 9.46 9.1 9.1 0 0 0 2 5.55c2.28 3.14 7.83 7.93 10.7 10.77a3.8 3.8 0 0 0 .33-4.79C14.59 35 10.43 33.21 10.43 29a6.07 6.07 0 0 1 12.14 0l-.02-.01Z" fill="url(#e)"/><path d="m9.67 1.79 21 11.44.6.33c.5.39 1 1.17.35 2.61-1 2.15-5 4.23-9.61 2.6 1.44.42 2.42-.06 3.68-1.12 1-.82 2.09-3.49.4-4.11a12.14 12.14 0 0 0-1.69-.42c-3.14-.61-8.63-1.19-10.65-2.34C10.59 9 8.43 5.35 9.67 1.79Z" fill="url(#f)"/><path d="M9.67 1.79c2.17 8 15.38 8.66 22 12l-22-12Z" fill="url(#g)"/><path d="M16.9 37.92C14.59 35 10.43 33.21 10.43 29a6.07 6.07 0 0 1 5.32-6A8.78 8.78 0 0 0 7 31.75c-.001.591.06 1.181.18 1.76 1.91 2.16 4.67 4.71 7 6.87.91.85 1.75 1.65 2.44 2.33a4.18 4.18 0 0 0 1-2.37 3.66 3.66 0 0 0-.72-2.42Z" fill="url(#h)"/><path d="M22.52 29.71a5.81 5.81 0 0 0 .05-.72C23.83 22.26 17 15.84 11.76 16.8a12.49 12.49 0 0 1 3.42-.34c6.87.28 8.79 7.62 7.34 13.25Z" fill="url(#i)"/><path d="M2.26 14.84a2.27 2.27 0 0 1 2.26 2.27v2.26H2.26A2.26 2.26 0 0 1 0 17.11a2.27 2.27 0 0 1 2.26-2.27Z" fill="url(#j)"/></g></svg>
