<svg xmlns="http://www.w3.org/2000/svg" style="isolation:isolate" width="305.379" height="72.239"><defs><clipPath id="a"><path d="M0 0h305.379v72.239H0z"/></clipPath></defs><g clip-path="url(#a)" fill-rule="evenodd" fill="#FFF"><path d="M293.709 56.907q0-3.174-2.612-4.834-2.612-1.66-8.667-2.93-6.055-1.269-10.108-3.222-8.886-4.297-8.886-12.452 0-6.836 5.761-11.425 5.762-4.59 14.649-4.59 9.473 0 15.307 4.687 5.835 4.688 5.835 12.158h-11.865q0-3.418-2.539-5.688-2.539-2.271-6.738-2.271-3.906 0-6.372 1.807-2.466 1.807-2.466 4.834 0 2.734 2.295 4.248 2.295 1.514 9.277 3.052 6.983 1.538 10.962 3.662 3.98 2.124 5.908 5.103 1.929 2.978 1.929 7.226 0 7.129-5.908 11.548-5.908 4.419-15.479 4.419-6.494 0-11.572-2.344-5.078-2.344-7.91-6.445-2.832-4.102-2.832-8.838h11.523q.244 4.199 3.174 6.47 2.93 2.27 7.764 2.27 4.687 0 7.129-1.782 2.441-1.782 2.441-4.663zm-34.226-38.77l-.049 11.133q-2.343-.39-4.834-.39-8.154 0-10.986 6.25v36.132h-11.865V18.43h11.328l.293 5.909q4.297-6.885 11.914-6.885 2.539 0 4.199.683zm-32.465 53.125h-12.11q-.781-1.513-1.367-4.931-5.664 5.908-13.867 5.908-7.959 0-12.988-4.541-5.03-4.541-5.03-11.231 0-8.447 6.275-12.963 6.274-4.517 17.944-4.517h7.276V35.52q0-4.101-2.295-6.567t-6.983-2.466q-4.053 0-6.64 2.026-2.588 2.027-2.588 5.152h-11.866q0-4.346 2.881-8.13 2.881-3.784 7.837-5.933 4.956-2.148 11.06-2.148 9.277 0 14.795 4.663 5.517 4.663 5.664 13.11v23.828q0 7.129 2.002 11.377v.83zm-25.147-8.545q3.516 0 6.616-1.709 3.101-1.709 4.664-4.589v-9.961h-6.397q-6.592 0-9.912 2.295-3.32 2.294-3.32 6.494 0 3.418 2.27 5.444 2.271 2.026 6.079 2.026zm-56.537 8.545h-12.11q-.781-1.513-1.367-4.931-5.664 5.908-13.867 5.908-7.959 0-12.989-4.541-5.029-4.541-5.029-11.231 0-8.447 6.275-12.963 6.274-4.517 17.944-4.517h7.275V35.52q0-4.101-2.295-6.567t-6.982-2.466q-4.053 0-6.641 2.026-2.588 2.027-2.588 5.152h-11.865q0-4.346 2.881-8.13 2.881-3.784 7.837-5.933 4.956-2.148 11.06-2.148 9.277 0 14.795 4.663 5.517 4.663 5.664 13.11v23.828q0 7.129 2.002 11.377v.83zm-25.147-8.545q3.516 0 6.616-1.709 3.101-1.709 4.663-4.589v-9.961h-6.396q-6.592 0-9.912 2.295-3.321 2.294-3.321 6.494 0 3.418 2.271 5.444 2.27 2.026 6.079 2.026zm35.74-57.128h11.865V18.43h9.326v8.789h-9.326v29.493q0 3.027 1.196 4.37 1.196 1.342 4.273 1.342 2.05 0 4.15-.488v9.18q-4.053 1.123-7.813 1.123-13.671 0-13.671-15.088V27.219h-8.692V18.43h8.692V5.589zM65.163 18.43l11.328 37.793L87.673 18.43h12.256L81.618 71.262H71.315L52.858 18.43h12.305zm-13.21 52.832l-5.81-16.552H18.604l-5.762 16.552H0L26.855.169h11.084l26.905 71.093H51.953zm-19.58-56.006L22.07 44.749h20.606L32.373 15.256z"/><path d="M56.432 14.414h-3.936V.195h4.014q1.855 0 3.281.821 1.426.82 2.202 2.334.777 1.513.786 3.476v.908q0 2.012-.776 3.526-.776 1.513-2.217 2.324-1.44.811-3.354.83zm.127-12.676h-2.188v11.143h1.973q2.168 0 3.374-1.348 1.206-1.347 1.206-3.838v-.83q0-2.422-1.138-3.764-1.138-1.343-3.227-1.363zm10.732 2.11v10.566h-1.807V3.848h1.807zm-1.953-2.803q0-.44.268-.742.269-.303.796-.303.528 0 .801.303.274.302.274.742 0 .439-.274.732-.273.293-.801.293-.527 0-.796-.293-.268-.293-.268-.732zm9.082 12.09q.967 0 1.689-.586.723-.586.801-1.465h1.709q-.049.908-.625 1.729-.576.82-1.538 1.308-.962.488-2.036.488-2.158 0-3.433-1.44-1.274-1.44-1.274-3.94v-.303q0-1.543.566-2.744.567-1.202 1.626-1.866 1.06-.664 2.505-.664 1.778 0 2.954 1.065 1.177 1.064 1.255 2.763H76.91q-.078-1.025-.776-1.684-.698-.659-1.724-.659-1.377 0-2.134.991-.756.991-.756 2.866v.342q0 1.826.752 2.812.751.987 2.148.987zm10.615 1.474q-2.148 0-3.496-1.411-1.348-1.411-1.348-3.774v-.332q0-1.572.601-2.808.601-1.235 1.68-1.933 1.079-.699 2.339-.699 2.06 0 3.203 1.358 1.142 1.357 1.142 3.886v.752h-7.158q.039 1.563.913 2.525t2.222.962q.957 0 1.621-.391.664-.39 1.162-1.035l1.104.859q-1.329 2.041-3.985 2.041zm-.224-9.472q-1.094 0-1.836.796-.743.796-.918 2.231h5.293v-.137q-.078-1.377-.743-2.133-.664-.757-1.796-.757zm11.65 9.277h-4.932V.195h4.649q2.314 0 3.481.957 1.167.957 1.167 2.832 0 .996-.566 1.763-.567.767-1.543 1.187 1.152.322 1.821 1.225.669.904.669 2.154 0 1.914-1.24 3.007-1.24 1.094-3.506 1.094zm.068-6.65h-3.125v5.117H96.5q1.309 0 2.065-.679.757-.679.757-1.87 0-2.568-2.793-2.568zm-3.125-6.026V6.26h2.832q1.231 0 1.968-.615.737-.616.737-1.67 0-1.172-.683-1.704-.684-.533-2.08-.533h-2.774zm14.678 12.871q-2.148 0-3.496-1.411-1.348-1.411-1.348-3.774v-.332q0-1.572.601-2.808.6-1.235 1.68-1.933 1.079-.699 2.338-.699 2.061 0 3.204 1.358 1.142 1.357 1.142 3.886v.752h-7.158q.039 1.563.913 2.525t2.222.962q.957 0 1.621-.391.664-.39 1.162-1.035l1.103.859q-1.328 2.041-3.984 2.041zm-.225-9.472q-1.093 0-1.835.796-.743.796-.918 2.231h5.293v-.137q-.079-1.377-.743-2.133-.664-.757-1.797-.757zm14.854 9.277h-1.895q-.156-.312-.253-1.113-1.26 1.308-3.008 1.308-1.563 0-2.564-.883-1.001-.884-1.001-2.242 0-1.65 1.255-2.563 1.255-.913 3.53-.913h1.758v-.83q0-.948-.566-1.509-.567-.562-1.67-.562-.967 0-1.621.489-.654.488-.654 1.181h-1.817q0-.791.562-1.528.561-.737 1.523-1.167.962-.43 2.114-.43 1.827 0 2.862.913 1.035.914 1.074 2.515v4.863q0 1.455.371 2.315v.156zm-4.893-1.377q.85 0 1.612-.439.761-.44 1.103-1.143V9.287h-1.416q-3.32 0-3.32 1.943 0 .85.566 1.329.567.478 1.455.478zm12.461-9.248v1.68q-.41-.069-.888-.069-1.778 0-2.412 1.514v7.5h-1.807V3.848h1.758l.029 1.22q.889-1.416 2.52-1.416.527 0 .8.137z" opacity=".6"/></g></svg>