<?xml version="1.0" standalone="no"?><!-- Generator: Gravit.io --><svg xmlns="http://www.w3.org/2000/svg" xmlns:xlink="http://www.w3.org/1999/xlink" style="isolation:isolate" viewBox="0 0 20 20" width="20" height="20"><defs><clipPath id="_clipPath_udjacP9VHBdH5Is9Z09hm0sGcV9whjpF"><rect width="20" height="20"/></clipPath></defs><g clip-path="url(#_clipPath_udjacP9VHBdH5Is9Z09hm0sGcV9whjpF)"><g id="Head"><g id="Group"><path d=" M 3 20 L 3 17 L 4 17 L 4 16 L 8 16 L 8 15 L 5 15 L 5 14 L 4 14 L 4 13 L 3 13 L 3 10 L 2 10 L 2 7 L 3 7 L 3 4 L 4 4 L 4 3 L 5 3 L 5 2 L 15 2 L 15 3 L 16 3 L 16 4 L 17 4 L 17 7 L 18 7 L 18 10 L 17 10 L 17 13 L 16 13 L 16 14 L 15 14 L 15 15 L 12 15 L 12 16 L 16 16 L 16 17 L 17 17 L 17 20 L 3 20 Z " fill="rgb(0,0,0)"/></g></g><g id="Clothes"><g id="Group"><path d=" M 3 20 L 3 17 L 4 17 L 4 16 L 16 16 L 16 17 L 17 17 L 17 20 L 3 20 Z " fill="rgb(46,46,46)"/><path d=" M 8 15 L 12 15 L 12 16 L 8 16 L 8 15 Z " fill="rgb(0,0,0)"/><path d=" M 12 19 L 12 18 L 15 18 L 15 19 L 12 19 Z " fill="rgb(93,93,93)"/></g><g id="Group"><path d=" M 3 20 L 3 17 L 4 17 L 4 16 L 16 16 L 16 17 L 17 17 L 17 20 L 3 20 Z " fill="rgb(0,0,0)"/><path d=" M 5 20 L 5 18 L 6 18 L 6 17 L 14 17 L 14 18 L 15 18 L 15 20 L 13 20 L 13 19 L 11 19 L 11 20 L 9 20 L 9 19 L 7 19 L 7 20 L 5 20 Z " fill="rgb(70,70,70)"/></g><g id="Group"><path d=" M 3 20 L 3 17 L 4 17 L 4 16 L 16 16 L 16 17 L 17 17 L 17 20 L 3 20 Z " fill="rgb(46,46,46)"/><path d=" M 8 16 L 8 17 L 7 17 L 7 18 L 8 18 L 8 19 L 9 19 L 9 18 L 11 18 L 11 19 L 12 19 L 12 18 L 13 18 L 13 17 L 12 17 L 12 16 L 8 16 Z " fill="rgb(0,0,0)"/><path d=" M 9 16 L 9 17 L 11 17 L 11 16 L 9 16 Z " fill="rgb(255,255,255)"/></g><g id="Group"><path d=" M 3 20 L 3 17 L 4 17 L 4 16 L 16 16 L 16 17 L 17 17 L 17 20 L 3 20 Z " fill="rgb(93,93,93)"/><path d=" M 9 20 L 9 18 L 8 18 L 8 17 L 9 17 L 9 16 L 11 16 L 11 17 L 12 17 L 12 18 L 11 18 L 11 20 L 9 20 Z " fill="rgb(0,0,0)"/></g><g id="Group"><path d=" M 3 20 L 3 17 L 4 17 L 4 16 L 7 16 L 7 18 L 13 18 L 13 16 L 16 16 L 16 17 L 17 17 L 17 20 L 3 20 Z " fill="rgb(46,46,46)"/><path d=" M 5 20 L 5 16 L 6 16 L 6 20 L 5 20 Z  M 14 20 L 14 16 L 15 16 L 15 20 L 14 20 Z " fill-rule="evenodd" fill="rgb(0,0,0)"/></g><g id="Group"><path d=" M 3 20 L 3 17 L 4 17 L 4 16 L 8 16 L 8 17 L 9 17 L 9 18 L 11 18 L 11 17 L 12 17 L 12 16 L 16 16 L 16 17 L 17 17 L 17 20 L 3 20 Z " fill="rgb(46,46,46)"/><path d=" M 4 17 L 4 16 L 7 16 L 7 17 L 4 17 Z  M 13 17 L 13 16 L 16 16 L 16 17 L 13 17 Z " fill-rule="evenodd" fill="rgb(0,0,0)"/></g><g id="Group"><path d=" M 3 20 L 3 17 L 4 17 L 4 16 L 9 16 L 9 17 L 11 17 L 11 16 L 16 16 L 16 17 L 17 17 L 17 20 L 3 20 Z " fill="rgb(46,46,46)"/><path d=" M 9 20 L 9 18 L 8 18 L 8 17 L 6 17 L 6 16 L 7 16 L 7 15 L 8 15 L 8 16 L 9 16 L 9 17 L 11 17 L 11 16 L 12 16 L 12 15 L 13 15 L 13 16 L 14 16 L 14 17 L 12 17 L 12 18 L 11 18 L 11 20 L 9 20 Z " fill="rgb(0,0,0)"/></g><g id="Group"><path d=" M 3 20 L 3 17 L 4 17 L 4 16 L 7 16 L 7 17 L 13 17 L 13 16 L 16 16 L 16 17 L 17 17 L 17 20 L 3 20 Z " fill="rgb(209,209,209)"/><path d=" M 4 20 L 4 19 L 5 19 L 5 16 L 6 16 L 6 18 L 14 18 L 14 16 L 15 16 L 15 19 L 16 19 L 16 20 L 4 20 Z " fill="rgb(0,0,0)"/><path d=" M 11 20 L 11 19 L 14 19 L 14 20 L 11 20 Z " fill="rgb(116,116,116)"/></g><g id="Group"><path d=" M 3 20 L 3 17 L 4 17 L 4 16 L 8 16 L 8 17 L 12 17 L 12 16 L 16 16 L 16 17 L 17 17 L 17 20 L 3 20 Z " fill="rgb(46,46,46)"/><path d=" M 3 20 L 3 19 L 4 19 L 4 20 L 3 20 Z  M 5 20 L 5 19 L 6 19 L 6 20 L 5 20 Z  M 7 20 L 7 19 L 8 19 L 8 20 L 7 20 Z  M 9 20 L 9 19 L 10 19 L 10 20 L 9 20 Z  M 11 20 L 11 19 L 12 19 L 12 20 L 11 20 Z  M 13 20 L 13 19 L 14 19 L 14 20 L 13 20 Z  M 15 20 L 15 19 L 16 19 L 16 20 L 15 20 Z  M 16 18 L 17 18 L 17 19 L 16 19 L 16 18 Z  M 14 18 L 15 18 L 15 19 L 14 19 L 14 18 Z  M 12 18 L 13 18 L 13 19 L 12 19 L 12 18 Z  M 10 18 L 11 18 L 11 19 L 10 19 L 10 18 Z  M 8 18 L 9 18 L 9 19 L 8 19 L 8 18 Z  M 6 18 L 7 18 L 7 19 L 6 19 L 6 18 Z  M 4 18 L 5 18 L 5 19 L 4 19 L 4 18 Z  M 3 17 L 4 17 L 4 18 L 3 18 L 3 17 Z  M 5 17 L 6 17 L 6 18 L 5 18 L 5 17 Z  M 7 17 L 8 17 L 8 18 L 7 18 L 7 17 Z  M 9 17 L 10 17 L 10 18 L 9 18 L 9 17 Z  M 11 17 L 12 17 L 12 18 L 11 18 L 11 17 Z  M 13 17 L 14 17 L 14 18 L 13 18 L 13 17 Z  M 15 17 L 16 17 L 16 18 L 15 18 L 15 17 Z  M 4 16 L 5 16 L 5 17 L 4 17 L 4 16 Z  M 6 16 L 7 16 L 7 17 L 6 17 L 6 16 Z  M 12 16 L 13 16 L 13 17 L 12 17 L 12 16 Z  M 14 16 L 15 16 L 15 17 L 14 17 L 14 16 Z " fill-rule="evenodd" fill="rgb(0,0,0)"/></g><g id="Group"><path d=" M 3 20 L 3 17 L 4 17 L 4 16 L 8 16 L 8 17 L 12 17 L 12 16 L 16 16 L 16 17 L 17 17 L 17 20 L 3 20 Z " fill="rgb(46,46,46)"/><path d=" M 3 20 L 3 18 L 4 18 L 4 20 L 3 20 Z  M 6 20 L 6 18 L 8 18 L 8 20 L 6 20 Z  M 10 20 L 10 18 L 12 18 L 12 20 L 10 20 Z  M 14 20 L 14 18 L 16 18 L 16 20 L 14 20 Z  M 16 17 L 16 18 L 17 18 L 17 17 L 16 17 Z  M 14 18 L 14 16 L 12 16 L 12 18 L 14 18 Z  M 8 17 L 8 18 L 10 18 L 10 17 L 8 17 Z  M 4 16 L 4 18 L 6 18 L 6 16 L 4 16 Z " fill-rule="evenodd" fill="rgb(0,0,0)"/></g><g id="Group"><path d=" M 3 19 L 17 19 L 17 20 L 3 20 L 3 19 Z  M 3 17 L 17 17 L 17 18 L 3 18 L 3 17 Z " fill-rule="evenodd" fill="rgb(46,46,46)"/><path d=" M 3 18 L 17 18 L 17 19 L 3 19 L 3 18 Z  M 4 16 L 8 16 L 8 17 L 4 17 L 4 16 Z  M 12 16 L 16 16 L 16 17 L 12 17 L 12 16 Z " fill-rule="evenodd" fill="rgb(0,0,0)"/></g><g id="Group"><path d=" M 3 20 L 3 17 L 4 17 L 4 16 L 8 16 L 8 17 L 12 17 L 12 16 L 16 16 L 16 17 L 17 17 L 17 20 L 3 20 Z " fill="rgb(0,0,0)"/></g><g id="Group"><path d=" M 3 20 L 3 17 L 4 17 L 4 16 L 16 16 L 16 17 L 17 17 L 17 20 L 3 20 Z " fill="rgb(0,0,0)"/></g></g><g id="Eyes"><g id="Group"><path d=" M 5 9 L 5 7 L 8 7 L 8 9 L 5 9 Z  M 12 7 L 15 7 L 15 9 L 12 9 L 12 7 Z " fill-rule="evenodd" fill="rgb(255,255,255)"/><path d=" M 7 8 L 7 9 L 8 9 L 8 8 L 7 8 Z  M 14 8 L 15 8 L 15 9 L 14 9 L 14 8 Z " fill-rule="evenodd" fill="rgb(0,0,0)"/></g><g id="Group"><path d=" M 5 7 L 8 7 L 8 9 L 5 9 L 5 7 Z  M 12 7 L 15 7 L 15 9 L 12 9 L 12 7 Z " fill-rule="evenodd" fill="rgb(255,255,255)"/><path d=" M 6 8 L 7 8 L 7 9 L 6 9 L 6 8 Z  M 13 9 L 13 8 L 14 8 L 14 9 L 13 9 Z " fill-rule="evenodd" fill="rgb(0,0,0)"/></g><g id="Group"><path d=" M 5 7 L 8 7 L 8 9 L 5 9 L 5 7 Z  M 12 7 L 15 7 L 15 9 L 12 9 L 12 7 Z " fill-rule="evenodd" fill="rgb(255,255,255)"/><path d=" M 7 8 L 8 8 L 8 9 L 7 9 L 7 8 Z  M 12 8 L 13 8 L 13 9 L 12 9 L 12 8 Z " fill-rule="evenodd" fill="rgb(0,0,0)"/></g><g id="Group"><path d=" M 6 7 L 7 7 L 7 8 L 8 8 L 8 9 L 6 9 L 6 7 Z  M 12 7 L 13 7 L 13 8 L 14 8 L 14 9 L 12 9 L 12 7 Z " fill-rule="evenodd" fill="rgb(255,255,255)"/><path d=" M 6 8 L 7 8 L 7 9 L 6 9 L 6 8 Z  M 12 8 L 13 8 L 13 9 L 12 9 L 12 8 Z " fill-rule="evenodd" fill="rgb(0,0,0)"/></g><g id="Group"><path d=" M 5 8 L 7 8 L 7 9 L 5 9 L 5 8 Z  M 12 8 L 14 8 L 14 9 L 12 9 L 12 8 Z " fill-rule="evenodd" fill="rgb(255,255,255)"/><path d=" M 7 8 L 8 8 L 8 9 L 7 9 L 7 8 Z  M 14 8 L 15 8 L 15 9 L 14 9 L 14 8 Z " fill-rule="evenodd" fill="rgb(0,0,0)"/></g><g id="Group"><path d=" M 6 8 L 7 8 L 7 9 L 6 9 L 6 8 Z  M 13 8 L 14 8 L 14 9 L 13 9 L 13 8 Z " fill-rule="evenodd" fill="rgb(255,255,255)"/><path d=" M 7 8 L 8 8 L 8 9 L 7 9 L 7 8 Z  M 12 8 L 13 8 L 13 9 L 12 9 L 12 8 Z " fill-rule="evenodd" fill="rgb(0,0,0)"/></g><g id="Group"><path d=" M 5 7 L 5 8 L 8 8 L 8 7 L 5 7 Z  M 12 7 L 15 7 L 15 8 L 12 8 L 12 7 Z " fill-rule="evenodd" fill="rgb(255,255,255)"/><path d=" M 5 9 L 5 8 L 6 8 L 6 7 L 7 7 L 7 8 L 8 8 L 8 9 L 5 9 Z  M 12 9 L 12 8 L 13 8 L 13 7 L 14 7 L 14 8 L 15 8 L 15 9 L 12 9 Z " fill-rule="evenodd" fill="rgb(116,116,116)"/><path d=" M 6 8 L 7 8 L 7 9 L 6 9 L 6 8 Z  M 13 8 L 14 8 L 14 9 L 13 9 L 13 8 Z " fill-rule="evenodd" fill="rgb(0,0,0)"/></g><g id="Group"><path d=" M 5 8 L 8 8 L 8 9 L 5 9 L 5 8 Z  M 12 8 L 15 8 L 15 9 L 12 9 L 12 8 Z " fill-rule="evenodd" fill="rgb(255,255,255)"/><path d=" M 6 8 L 7 8 L 7 9 L 6 9 L 6 8 Z  M 13 8 L 14 8 L 14 9 L 13 9 L 13 8 Z " fill-rule="evenodd" fill="rgb(0,0,0)"/></g><g id="Group"><path d=" M 5 7 L 8 7 L 8 9 L 5 9 L 5 7 Z  M 12 7 L 15 7 L 15 9 L 12 9 L 12 7 Z " fill-rule="evenodd" fill="rgb(255,255,255)"/><path d=" M 5 8 L 7 8 L 7 9 L 5 9 L 5 8 Z  M 12 8 L 14 8 L 14 9 L 12 9 L 12 8 Z " fill-rule="evenodd" fill="rgb(0,0,0)"/></g><g id="Group"><path d=" M 5 7 L 8 7 L 8 10 L 5 10 L 5 7 Z  M 12 7 L 15 7 L 15 10 L 12 10 L 12 7 Z " fill-rule="evenodd" fill="rgb(255,255,255)"/><path d=" M 6 8 L 7 8 L 7 9 L 6 9 L 6 8 Z  M 13 8 L 14 8 L 14 9 L 13 9 L 13 8 Z " fill-rule="evenodd" fill="rgb(0,0,0)"/></g><g id="Group"><path d=" M 5 7 L 8 7 L 8 10 L 5 10 L 5 7 Z  M 12 7 L 15 7 L 15 10 L 12 10 L 12 7 Z " fill-rule="evenodd" fill="rgb(255,255,255)"/><path d=" M 6 7 L 6 9 L 8 9 L 8 8 L 7 8 L 7 7 L 6 7 Z  M 13 7 L 13 9 L 15 9 L 15 8 L 14 8 L 14 7 L 13 7 Z " fill-rule="evenodd" fill="rgb(116,116,116)"/><path d=" M 6 8 L 7 8 L 7 9 L 6 9 L 6 8 Z  M 13 8 L 14 8 L 14 9 L 13 9 L 13 8 Z " fill-rule="evenodd" fill="rgb(0,0,0)"/><path d=" M 7 7 L 7 8 L 8 8 L 8 7 L 7 7 Z  M 14 7 L 15 7 L 15 8 L 14 8 L 14 7 Z " fill-rule="evenodd" fill="rgb(185,185,185)"/></g><g id="Group"><path d=" M 5 7 L 8 7 L 8 10 L 5 10 L 5 7 Z  M 12 7 L 15 7 L 15 10 L 12 10 L 12 7 Z " fill-rule="evenodd" fill="rgb(255,255,255)"/><path d=" M 5 8 L 6 8 L 6 9 L 5 9 L 5 8 Z  M 12 8 L 13 8 L 13 9 L 12 9 L 12 8 Z " fill-rule="evenodd" fill="rgb(185,185,185)"/><path d=" M 6 8 L 7 8 L 7 9 L 6 9 L 6 8 Z  M 13 8 L 14 8 L 14 9 L 13 9 L 13 8 Z " fill-rule="evenodd" fill="rgb(0,0,0)"/></g><g id="Group"><path d=" M 6 7 L 7 7 L 7 9 L 5 9 L 5 8 L 6 8 L 6 7 Z  M 13 7 L 14 7 L 14 9 L 12 9 L 12 8 L 13 8 L 13 7 Z " fill-rule="evenodd" fill="rgb(255,255,255)"/><path d=" M 7 7 L 8 7 L 8 9 L 6 9 L 6 8 L 7 8 L 7 7 Z  M 14 7 L 15 7 L 15 9 L 13 9 L 13 8 L 14 8 L 14 7 Z " fill-rule="evenodd" fill="rgb(139,139,139)"/><path d=" M 7 8 L 8 8 L 8 9 L 7 9 L 7 8 Z  M 14 8 L 15 8 L 15 9 L 14 9 L 14 8 Z " fill-rule="evenodd" fill="rgb(0,0,0)"/></g></g><g id="Eyebrows"><g id="Group"><path d=" M 7 5 L 7 6 L 5 6 L 5 7 L 4 7 L 4 6 L 5 6 L 5 5 L 7 5 Z  M 14 5 L 14 6 L 12 6 L 12 7 L 11 7 L 11 6 L 12 6 L 12 5 L 14 5 Z " fill-rule="evenodd" fill="rgb(0,0,0)"/></g><g id="Group"><path d=" M 8 4 L 8 5 L 7 5 L 7 6 L 5 6 L 5 5 L 7 5 L 7 4 L 8 4 Z  M 12 4 L 13 4 L 13 5 L 15 5 L 15 6 L 13 6 L 13 5 L 12 5 L 12 4 Z " fill-rule="evenodd" fill="rgb(0,0,0)"/></g><g id="Group"><path d=" M 6 5 L 9 5 L 9 7 L 8 7 L 8 6 L 6 6 L 6 5 Z  M 11 5 L 14 5 L 14 6 L 12 6 L 12 7 L 11 7 L 11 5 Z " fill-rule="evenodd" fill="rgb(0,0,0)"/></g><g id="Group"><path d=" M 5 5 L 8 5 L 8 6 L 9 6 L 9 7 L 8 7 L 8 6 L 5 6 L 5 5 Z  M 15 5 L 12 5 L 12 6 L 11 6 L 11 7 L 12 7 L 12 6 L 15 6 L 15 5 Z " fill-rule="evenodd" fill="rgb(0,0,0)"/></g><g id="Group"><path d=" M 6 5 L 4 5 L 4 7 L 5 7 L 5 6 L 6 6 L 6 5 Z  M 14 5 L 16 5 L 16 7 L 15 7 L 15 6 L 14 6 L 14 5 Z " fill-rule="evenodd" fill="rgb(0,0,0)"/></g><g id="Group"><path d=" M 5 6 L 7 6 L 7 7 L 5 7 L 5 6 Z  M 13 6 L 15 6 L 15 7 L 13 7 L 13 6 Z " fill-rule="evenodd" fill="rgb(0,0,0)"/></g><g id="Group"><path d=" M 6 5 L 7 5 L 7 6 L 8 6 L 8 7 L 5 7 L 5 6 L 6 6 L 6 5 Z  M 13 5 L 14 5 L 14 6 L 15 6 L 15 7 L 12 7 L 12 6 L 13 6 L 13 5 Z " fill-rule="evenodd" fill="rgb(0,0,0)"/></g><g id="Group"><path d=" M 6 5 L 8 5 L 8 6 L 9 6 L 9 7 L 8 7 L 8 6 L 6 6 L 6 5 Z  M 14 5 L 12 5 L 12 6 L 11 6 L 11 7 L 12 7 L 12 6 L 14 6 L 14 5 Z " fill-rule="evenodd" fill="rgb(0,0,0)"/></g><g id="Group"><path d=" M 12 7 L 12 6 L 13 6 L 13 5 L 14 5 L 14 6 L 15 6 L 15 7 L 14 7 L 14 6 L 13 6 L 13 7 L 12 7 Z  M 5 7 L 5 6 L 6 6 L 6 5 L 7 5 L 7 6 L 8 6 L 8 7 L 7 7 L 7 6 L 6 6 L 6 7 L 5 7 Z " fill-rule="evenodd" fill="rgb(0,0,0)"/></g><g id="Group"><path d=" M 7 5 L 7 6 L 5 6 L 5 7 L 4 7 L 4 6 L 5 6 L 5 5 L 7 5 Z  M 13 5 L 15 5 L 15 6 L 16 6 L 16 7 L 15 7 L 15 6 L 13 6 L 13 5 Z " fill-rule="evenodd" fill="rgb(0,0,0)"/></g><g id="Group"><path d=" M 4 7 L 4 5 L 7 5 L 7 6 L 5 6 L 5 7 L 4 7 Z  M 16 5 L 16 7 L 15 7 L 15 6 L 13 6 L 13 5 L 16 5 Z " fill-rule="evenodd" fill="rgb(0,0,0)"/></g><g id="Group"><path d=" M 7 5 L 8 5 L 8 6 L 9 6 L 9 7 L 8 7 L 8 6 L 7 6 L 7 5 Z  M 13 5 L 13 6 L 12 6 L 12 7 L 11 7 L 11 6 L 12 6 L 12 5 L 13 5 Z " fill-rule="evenodd" fill="rgb(0,0,0)"/></g><g id="Group"><path d=" M 4 7 L 4 6 L 5 6 L 5 5 L 6 5 L 6 6 L 5 6 L 5 7 L 4 7 Z  M 14 5 L 15 5 L 15 6 L 16 6 L 16 7 L 15 7 L 15 6 L 14 6 L 14 5 Z " fill-rule="evenodd" fill="rgb(0,0,0)"/></g></g><g id="Glasses"><g id="Group"><path d=" M 4 6 L 4 11 L 9 11 L 9 6 L 4 6 Z  M 5 7 L 5 10 L 8 10 L 8 7 L 5 7 Z  M 11 6 L 11 11 L 16 11 L 16 6 L 11 6 Z  M 12 7 L 12 10 L 15 10 L 15 7 L 12 7 Z " fill-rule="evenodd" fill="rgb(0,0,0)"/><path d=" M 3 7 L 4 7 L 4 8 L 3 8 L 3 7 Z  M 9 7 L 11 7 L 11 8 L 9 8 L 9 7 Z  M 16 7 L 17 7 L 17 8 L 16 8 L 16 7 Z " fill-rule="evenodd" fill="rgb(46,46,46)"/><g opacity="0.2"><path d=" M 5 7 L 8 7 L 8 10 L 5 10 L 5 7 Z  M 12 7 L 15 7 L 15 10 L 12 10 L 12 7 Z " fill-rule="evenodd" fill="rgb(255,255,255)"/></g><g opacity="0.2"><path d=" M 7 7 L 8 7 L 8 8 L 7 8 L 7 7 Z  M 14 7 L 15 7 L 15 8 L 14 8 L 14 7 Z " fill-rule="evenodd" fill="rgb(255,255,255)"/></g></g></g><g id="Hair"><g id="Group"><path d=" M 3 3 L 3 5 L 4 5 L 4 4 L 5 4 L 5 3 L 15 3 L 15 4 L 16 4 L 16 5 L 17 5 L 17 3 L 16 3 L 16 2 L 4 2 L 4 3 L 3 3 Z " fill="rgb(0,0,0)"/></g><g id="Group"><path d=" M 5 2 L 15 2 L 15 3 L 16 3 L 16 4 L 17 4 L 17 7 L 16 7 L 16 6 L 15 6 L 15 5 L 14 5 L 14 4 L 10 4 L 10 5 L 8 5 L 8 6 L 7 6 L 7 7 L 4 7 L 4 6 L 3 6 L 3 4 L 4 4 L 4 3 L 5 3 L 5 2 Z " fill="rgb(0,0,0)"/></g><g id="Group"><path d=" M 3 6 L 4 6 L 4 4 L 5 4 L 5 3 L 7 3 L 7 4 L 8 4 L 8 5 L 12 5 L 12 4 L 13 4 L 13 3 L 15 3 L 15 4 L 16 4 L 16 6 L 17 6 L 17 4 L 16 4 L 16 3 L 15 3 L 15 2 L 5 2 L 5 3 L 4 3 L 4 4 L 3 4 L 3 6 Z " fill="rgb(0,0,0)"/></g><g id="Group"><path d=" M 3 8 L 4 8 L 4 5 L 16 5 L 16 8 L 17 8 L 17 4 L 16 4 L 16 3 L 15 3 L 15 2 L 5 2 L 5 3 L 4 3 L 4 4 L 3 4 L 3 8 Z " fill="rgb(0,0,0)"/></g><g id="Group"><path d=" M 2 4 L 2 5 L 3 5 L 3 6 L 5 6 L 5 5 L 6 5 L 6 2 L 4 2 L 4 3 L 3 3 L 3 4 L 2 4 Z  M 8 3 L 10 3 L 10 4 L 12 4 L 12 3 L 13 3 L 13 2 L 8 2 L 8 3 Z  M 14 5 L 15 5 L 15 6 L 17 6 L 17 5 L 18 5 L 18 4 L 17 4 L 17 3 L 16 3 L 16 2 L 14 2 L 14 5 Z " fill-rule="evenodd" fill="rgb(0,0,0)"/></g><g id="Group"><path d=" M 2 5 L 2 6 L 3 6 L 3 7 L 4 7 L 4 5 L 6 5 L 6 3 L 14 3 L 14 4 L 15 4 L 15 5 L 16 5 L 16 7 L 17 7 L 17 3 L 18 3 L 18 2 L 17 2 L 17 3 L 15 3 L 15 2 L 16 2 L 16 1 L 14 1 L 14 2 L 13 2 L 13 1 L 12 1 L 12 2 L 10 2 L 10 1 L 9 1 L 9 2 L 7 2 L 7 1 L 6 1 L 6 1 L 6 2 L 5 2 L 5 1 L 4 1 L 4 2 L 5 2 L 5 3 L 4 3 L 4 2 L 3 2 L 3 3 L 4 3 L 4 4 L 3 4 L 3 5 L 2 5 Z " fill="rgb(0,0,0)"/></g><g id="Group"><path d=" M 8 2 L 12 2 L 12 3 L 11 3 L 11 4 L 9 4 L 9 3 L 8 3 L 8 2 Z " fill="rgb(0,0,0)"/></g><g id="Group"><path d=" M 9 0 L 9 1 L 8 1 L 8 2 L 12 2 L 12 1 L 11 1 L 11 0 L 9 0 Z " fill="rgb(0,0,0)"/></g><g id="Group"><path d=" M 3 7 L 4 7 L 4 5 L 6 5 L 6 4 L 8 4 L 8 3 L 9 3 L 9 4 L 11 4 L 11 5 L 13 5 L 13 6 L 15 6 L 15 7 L 17 7 L 17 4 L 16 4 L 16 3 L 16 3 L 15 3 L 15 2 L 5 2 L 5 3 L 4 3 L 4 4 L 3 4 L 3 7 Z " fill="rgb(0,0,0)"/></g><g id="Group"><path d=" M 4 4 L 16 4 L 16 3 L 15 3 L 15 2 L 5 2 L 5 3 L 4 3 L 4 4 Z " fill="rgb(0,0,0)"/></g><g id="Group"><path d=" M 1 6 L 2 6 L 2 7 L 3 7 L 3 5 L 5 5 L 5 4 L 6 4 L 6 4 L 6 3 L 8 3 L 8 4 L 9 4 L 9 3 L 13 3 L 13 2 L 14 2 L 14 3 L 15 3 L 15 4 L 16 4 L 16 5 L 17 5 L 17 7 L 18 7 L 18 6 L 19 6 L 19 4 L 18 4 L 18 3 L 17 3 L 17 2 L 16 2 L 16 0 L 15 0 L 15 1 L 13 1 L 13 0 L 11 0 L 11 1 L 9 1 L 9 0 L 8 0 L 8 1 L 7 1 L 7 0 L 5 0 L 5 1 L 4 1 L 4 2 L 2 2 L 2 4 L 1 4 L 1 6 Z " fill="rgb(0,0,0)"/></g><g id="Group"><path d=" M 0 7 L 1 7 L 1 12 L 2 12 L 2 13 L 3 13 L 3 9 L 4 9 L 4 7 L 5 7 L 5 6 L 6 6 L 6 4 L 7 4 L 7 3 L 14 3 L 14 4 L 15 4 L 15 5 L 16 5 L 16 6 L 17 6 L 17 13 L 18 13 L 18 11 L 19 11 L 19 7 L 18 7 L 18 6 L 19 6 L 19 4 L 18 4 L 18 5 L 17 5 L 17 3 L 18 3 L 18 2 L 17 2 L 17 3 L 16 3 L 16 2 L 14 2 L 14 1 L 13 1 L 13 0 L 12 0 L 12 1 L 5 1 L 5 0 L 4 0 L 4 1 L 3 1 L 3 0 L 2 0 L 2 1 L 3 1 L 3 3 L 2 3 L 2 2 L 1 2 L 1 3 L 2 3 L 2 4 L 1 4 L 1 6 L 0 6 L 0 7 Z " fill="rgb(0,0,0)"/></g><g id="Group"><path d=" M 3 4 L 3 7 L 5 7 L 5 6 L 6 6 L 6 5 L 11 5 L 11 4 L 12 4 L 12 3 L 13 3 L 13 2 L 5 2 L 5 3 L 4 3 L 4 4 L 3 4 Z  M 12 5 L 14 5 L 14 6 L 15 6 L 15 7 L 17 7 L 17 4 L 16 4 L 16 3 L 15 3 L 15 2 L 14 2 L 14 3 L 14 3 L 13 3 L 13 4 L 12 4 L 12 5 Z " fill-rule="evenodd" fill="rgb(0,0,0)"/></g></g><g id="Mustache"><g id="Group"><path d=" M 3 10 L 3 13 L 4 13 L 4 14 L 5 14 L 5 15 L 15 15 L 15 14 L 16 14 L 16 13 L 17 13 L 17 10 L 14 10 L 14 11 L 6 11 L 6 10 L 3 10 Z " fill="rgb(0,0,0)"/></g><g id="Group"><path d=" M 3 13 L 4 13 L 4 14 L 5 14 L 5 15 L 8 15 L 8 16 L 12 16 L 12 15 L 15 15 L 15 14 L 16 14 L 16 13 L 17 13 L 17 10 L 16 10 L 16 11 L 15 11 L 15 12 L 5 12 L 5 11 L 4 11 L 4 10 L 3 10 L 3 13 Z " fill="rgb(0,0,0)"/></g><g id="Group"><path d=" M 9 14 L 11 14 L 11 15 L 9 15 L 9 14 Z " fill="rgb(0,0,0)"/></g><g id="Group"><path d=" M 7 14 L 13 14 L 13 15 L 12 15 L 12 16 L 11 16 L 11 18 L 9 18 L 9 16 L 8 16 L 8 15 L 7 15 L 7 14 Z " fill="rgb(0,0,0)"/></g><g id="Group"><path d=" M 3 11 L 3 13 L 4 13 L 4 14 L 5 14 L 5 15 L 15 15 L 15 14 L 16 14 L 16 13 L 17 13 L 17 11 L 3 11 Z " fill="rgb(0,0,0)"/></g><g id="Group"><path d=" M 3 7 L 3 13 L 4 13 L 4 14 L 5 14 L 5 15 L 8 15 L 8 16 L 12 16 L 12 15 L 15 15 L 15 14 L 16 14 L 16 13 L 17 13 L 17 7 L 16 7 L 16 9 L 15 9 L 15 10 L 14 10 L 14 11 L 6 11 L 6 10 L 5 10 L 5 9 L 4 9 L 4 7 L 3 7 Z " fill="rgb(0,0,0)"/></g><g id="Group"><g opacity="0.5"><path d=" M 3 10 L 3 13 L 4 13 L 4 14 L 5 14 L 5 15 L 15 15 L 15 14 L 16 14 L 16 13 L 17 13 L 17 10 L 14 10 L 14 11 L 6 11 L 6 10 L 3 10 Z " fill="rgb(0,0,0)"/></g></g><g id="Group"><g opacity="0.5"><path d=" M 3 13 L 4 13 L 4 14 L 5 14 L 5 15 L 8 15 L 8 16 L 12 16 L 12 15 L 15 15 L 15 14 L 16 14 L 16 13 L 17 13 L 17 10 L 16 10 L 16 11 L 15 11 L 15 12 L 5 12 L 5 11 L 4 11 L 4 10 L 3 10 L 3 13 Z " fill="rgb(0,0,0)"/></g></g><g id="Group"><g opacity="0.5"><path d=" M 9 14 L 11 14 L 11 15 L 9 15 L 9 14 Z " fill="rgb(0,0,0)"/></g></g><g id="Group"><g opacity="0.5"><path d=" M 7 14 L 13 14 L 13 15 L 12 15 L 12 16 L 11 16 L 11 18 L 9 18 L 9 16 L 8 16 L 8 15 L 7 15 L 7 14 Z " fill="rgb(0,0,0)"/></g></g><g id="Group"><g opacity="0.5"><path d=" M 3 11 L 3 13 L 4 13 L 4 14 L 5 14 L 5 15 L 15 15 L 15 14 L 16 14 L 16 13 L 17 13 L 17 11 L 3 11 Z " fill="rgb(0,0,0)"/></g></g><g id="Group"><g opacity="0.5"><path d=" M 3 7 L 3 13 L 4 13 L 4 14 L 5 14 L 5 15 L 8 15 L 8 16 L 12 16 L 12 15 L 15 15 L 15 14 L 16 14 L 16 13 L 17 13 L 17 7 L 16 7 L 16 9 L 15 9 L 15 10 L 14 10 L 14 11 L 6 11 L 6 10 L 5 10 L 5 9 L 4 9 L 4 7 L 3 7 Z " fill="rgb(0,0,0)"/></g></g></g><g id="Mouth"><g id="Group"><path d=" M 9 13 L 9 14 L 10 14 L 10 13 L 9 13 Z " fill="rgb(0,0,0)"/></g><g id="Group"><path d=" M 10 12 L 10 13 L 9 13 L 9 14 L 11 14 L 11 12 L 10 12 Z " fill="rgb(0,0,0)"/></g><g id="Group"><path d=" M 9 13 L 11 13 L 11 14 L 9 14 L 9 13 Z " fill="rgb(0,0,0)"/></g><g id="Group"><path d=" M 8 13 L 12 13 L 12 14 L 8 14 L 8 13 Z " fill="rgb(0,0,0)"/></g><g id="Group"><path d=" M 7 12 L 7 13 L 8 13 L 8 14 L 12 14 L 12 13 L 8 13 L 8 12 L 7 12 Z " fill="rgb(0,0,0)"/></g><g id="Group"><path d=" M 9 12 L 9 14 L 11 14 L 11 12 L 9 12 Z " fill="rgb(0,0,0)"/></g><g id="Group"><path d=" M 8 13 L 8 14 L 12 14 L 12 13 L 13 13 L 13 12 L 12 12 L 12 13 L 8 13 Z " fill="rgb(0,0,0)"/></g><g id="Group"><path d=" M 8 13 L 11 13 L 11 14 L 8 14 L 8 13 Z " fill="rgb(0,0,0)"/></g><g id="Group"><path d=" M 8 12 L 8 13 L 11 13 L 11 14 L 12 14 L 12 13 L 11 13 L 11 12 L 8 12 Z " fill="rgb(0,0,0)"/></g><g id="Group"><path d=" M 8 13 L 8 14 L 9 14 L 9 13 L 12 13 L 12 12 L 9 12 L 9 13 L 8 13 Z " fill="rgb(0,0,0)"/></g><g id="Group"><path d=" M 8 12 L 8 14 L 12 14 L 12 12 L 8 12 Z " fill="rgb(255,255,255)"/></g></g><g id="Hats"><g id="Group"><path d=" M 4 0 L 4 2 L 2 2 L 2 4 L 18 4 L 18 2 L 16 2 L 16 0 L 4 0 Z " fill="rgb(0,0,0)"/></g><g id="Group"><path d=" M 4 3 L 2 3 L 2 4 L 18 4 L 18 3 L 16 3 L 16 0 L 4 0 L 4 3 Z " fill="rgb(0,0,0)"/></g><g id="Group"><path d=" M 2 2 L 2 4 L 18 4 L 18 2 L 17 2 L 17 1 L 16 1 L 16 0 L 4 0 L 4 1 L 3 1 L 3 2 L 2 2 Z " fill="rgb(0,0,0)"/></g><g id="Group"><path d=" M 6 0 L 6 1 L 5 1 L 5 2 L 4 2 L 4 4 L 18 4 L 18 3 L 16 3 L 16 2 L 15 2 L 15 1 L 14 1 L 14 0 L 6 0 Z " fill="rgb(0,0,0)"/></g><g id="Group"><path d=" M 2 2 L 2 4 L 18 4 L 18 2 L 2 2 Z " fill="rgb(0,0,0)"/><path d=" M 4 0 L 4 2 L 16 2 L 16 0 L 4 0 Z " fill="rgb(46,46,46)"/></g><g id="Group"><path d=" M 2 3 L 2 4 L 18 4 L 18 3 L 2 3 Z " fill="rgb(0,0,0)"/><path d=" M 4 0 L 4 3 L 16 3 L 16 0 L 4 0 Z " fill="rgb(46,46,46)"/></g><g id="Group"><path d=" M 4 0 L 4 1 L 16 1 L 16 0 L 4 0 Z " fill="rgb(0,0,0)"/><path d=" M 2 2 L 18 2 L 18 3 L 2 3 L 2 2 Z " fill="rgb(0,0,0)"/><path d=" M 3 1 L 3 2 L 17 2 L 17 1 L 3 1 Z " fill="rgb(46,46,46)"/><path d=" M 2 3 L 2 4 L 18 4 L 18 3 L 2 3 Z " fill="rgb(0,0,0)"/></g><g id="Group"><path d=" M 14 0 L 6 0 L 6 1 L 5 1 L 5 2 L 4 2 L 4 4 L 18 4 L 18 3 L 16 3 L 16 2 L 15 2 L 15 1 L 14 1 L 14 0 Z " fill="rgb(0,0,0)"/><path d=" M 5 3 L 6 3 L 6 2 L 7 2 L 7 1 L 8 1 L 8 0 L 7 0 L 7 1 L 6 1 L 6 2 L 5 2 L 5 3 Z " fill="rgb(46,46,46)"/></g><g id="Group"><path d=" M 4 0 L 4 2 L 2 2 L 2 4 L 18 4 L 18 2 L 16 2 L 16 0 L 4 0 Z " fill="rgb(0,0,0)"/><path d=" M 15 3 L 15 0 L 14 0 L 14 3 L 15 3 Z " fill="rgb(46,46,46)"/></g><g id="Group"><path d=" M 4 0 L 4 3 L 2 3 L 2 4 L 18 4 L 18 3 L 16 3 L 16 0 L 4 0 Z " fill="rgb(0,0,0)"/><path d=" M 15 3 L 15 0 L 14 0 L 14 3 L 15 3 Z  M 13 0 L 13 2 L 12 2 L 12 0 L 13 0 Z " fill-rule="evenodd" fill="rgb(46,46,46)"/></g><g id="Group"><path d=" M 2 2 L 2 4 L 18 4 L 18 2 L 17 2 L 17 1 L 16 1 L 16 0 L 4 0 L 4 1 L 3 1 L 3 2 L 2 2 Z " fill="rgb(0,0,0)"/><path d=" M 15 0 L 15 4 L 14 4 L 14 0 L 15 0 Z  M 13 0 L 13 4 L 12 4 L 12 0 L 13 0 Z " fill-rule="evenodd" fill="rgb(46,46,46)"/></g><g id="Group"><path d=" M 5 2 L 4 2 L 4 4 L 18 4 L 18 3 L 16 3 L 16 2 L 15 2 L 15 1 L 14 1 L 14 0 L 6 0 L 6 1 L 5 1 L 5 2 Z " fill="rgb(0,0,0)"/><path d=" M 14 2 L 11 2 L 11 3 L 14 3 L 14 2 Z " fill="rgb(46,46,46)"/></g></g></g></svg>