<svg width="180" height="180" viewBox="0 0 180 180" fill="none" xmlns="http://www.w3.org/2000/svg">
<g id="Bottt/Head">
<g id="&#240;&#159;&#145;&#130; Sides">
<g id="Ears">
<path id="Ears_2" fill-rule="evenodd" clip-rule="evenodd" d="M14.9809 86.9141C14 88.8393 14 91.3595 14 96.4V111.6C14 116.64 14 119.161 14.9809 121.086C15.8438 122.779 17.2206 124.156 18.9141 125.019C20.8393 126 23.3595 126 28.4 126H35.6C40.6405 126 43.1607 126 45.0859 125.019C46.7794 124.156 48.1562 122.779 49.0191 121.086C50 119.161 50 116.64 50 111.6V96.4C50 91.3595 50 88.8393 49.0191 86.9141C48.1562 85.2206 46.7794 83.8438 45.0859 82.9809C43.1607 82 40.6405 82 35.6 82H28.4C23.3595 82 20.8393 82 18.9141 82.9809C17.2206 83.8438 15.8438 85.2206 14.9809 86.9141ZM130.981 86.9141C130 88.8393 130 91.3595 130 96.4V111.6C130 116.64 130 119.161 130.981 121.086C131.844 122.779 133.221 124.156 134.914 125.019C136.839 126 139.36 126 144.4 126H151.6C156.64 126 159.161 126 161.086 125.019C162.779 124.156 164.156 122.779 165.019 121.086C166 119.161 166 116.64 166 111.6V96.4C166 91.3595 166 88.8393 165.019 86.9141C164.156 85.2206 162.779 83.8438 161.086 82.9809C159.161 82 156.64 82 151.6 82H144.4C139.36 82 136.839 82 134.914 82.9809C133.221 83.8438 131.844 85.2206 130.981 86.9141Z" fill="#0076DE"/>
<mask id="mask0" mask-type="alpha" maskUnits="userSpaceOnUse" x="14" y="82" width="152" height="44">
<path id="Ears_3" fill-rule="evenodd" clip-rule="evenodd" d="M14.9809 86.9141C14 88.8393 14 91.3595 14 96.4V111.6C14 116.64 14 119.161 14.9809 121.086C15.8438 122.779 17.2206 124.156 18.9141 125.019C20.8393 126 23.3595 126 28.4 126H35.6C40.6405 126 43.1607 126 45.0859 125.019C46.7794 124.156 48.1562 122.779 49.0191 121.086C50 119.161 50 116.64 50 111.6V96.4C50 91.3595 50 88.8393 49.0191 86.9141C48.1562 85.2206 46.7794 83.8438 45.0859 82.9809C43.1607 82 40.6405 82 35.6 82H28.4C23.3595 82 20.8393 82 18.9141 82.9809C17.2206 83.8438 15.8438 85.2206 14.9809 86.9141ZM130.981 86.9141C130 88.8393 130 91.3595 130 96.4V111.6C130 116.64 130 119.161 130.981 121.086C131.844 122.779 133.221 124.156 134.914 125.019C136.839 126 139.36 126 144.4 126H151.6C156.64 126 159.161 126 161.086 125.019C162.779 124.156 164.156 122.779 165.019 121.086C166 119.161 166 116.64 166 111.6V96.4C166 91.3595 166 88.8393 165.019 86.9141C164.156 85.2206 162.779 83.8438 161.086 82.9809C159.161 82 156.64 82 151.6 82H144.4C139.36 82 136.839 82 134.914 82.9809C133.221 83.8438 131.844 85.2206 130.981 86.9141Z" fill="white"/>
</mask>
<g mask="url(#mask0)">
<g id="&#226;&#134;&#179; Color Sides">
<rect id="Color/19-Blue Grey/300" y="66" width="180" height="76" fill="#90A4AE"/>
</g>
<rect id="Shadow" y="104" width="180" height="38" fill="black" fill-opacity="0.1"/>
</g>
</g>
</g>
<g id="&#240;&#159;&#142;&#169; Top">
<path id="Bulb Mask" fill-rule="evenodd" clip-rule="evenodd" d="M91 13C79.9543 13 71 21.9543 71 33V36H62C61.4477 36 61 36.4477 61 37V51C61 51.5523 61.4477 52 62 52H120C120.552 52 121 51.5523 121 51V37C121 36.4477 120.552 36 120 36H111V33C111 21.9543 102.046 13 91 13Z" fill="#59C4FF"/>
<mask id="mask1" mask-type="alpha" maskUnits="userSpaceOnUse" x="61" y="13" width="60" height="39">
<path id="Bulb Mask_2" fill-rule="evenodd" clip-rule="evenodd" d="M91 13C79.9543 13 71 21.9543 71 33V36H62C61.4477 36 61 36.4477 61 37V51C61 51.5523 61.4477 52 62 52H120C120.552 52 121 51.5523 121 51V37C121 36.4477 120.552 36 120 36H111V33C111 21.9543 102.046 13 91 13Z" fill="white"/>
</mask>
<g mask="url(#mask1)">
<g id="&#226;&#134;&#179; Color Top">
<rect id="Color/19-Blue Grey/300_2" x="41" width="100" height="52" fill="#90A4AE"/>
</g>
<path id="Light" fill-rule="evenodd" clip-rule="evenodd" d="M91 36C93.2091 36 95 35.028 95 31.7143C95 28.4006 93.2091 24 91 24C88.7909 24 87 28.4006 87 31.7143C87 35.028 88.7909 36 91 36Z" fill="white" fill-opacity="0.6"/>
<rect id="Highlight" x="61" y="13" width="60" height="23" fill="white" fill-opacity="0.4"/>
<path id="Reflection" d="M91 14.5C90.4477 14.5 90 14.9477 90 15.5C90 16.0523 90.4477 16.5 91 16.5V14.5ZM102.694 21.6875C103.065 22.0968 103.697 22.1281 104.107 21.7573C104.516 21.3865 104.547 20.7541 104.176 20.3448L102.694 21.6875ZM106.759 24.0473C106.504 23.5579 105.899 23.3686 105.41 23.6246C104.921 23.8806 104.731 24.4848 104.987 24.9742L106.759 24.0473ZM106.425 28.9559C106.54 29.4959 107.072 29.84 107.612 29.7244C108.152 29.6088 108.496 29.0773 108.38 28.5373L106.425 28.9559ZM91 16.5C95.6375 16.5 99.8065 18.4999 102.694 21.6875L104.176 20.3448C100.926 16.7563 96.2256 14.5 91 14.5V16.5ZM104.987 24.9742C105.636 26.2139 106.124 27.5501 106.425 28.9559L108.38 28.5373C108.041 26.9518 107.49 25.4448 106.759 24.0473L104.987 24.9742Z" fill="white"/>
</g>
</g>
<g id="&#240;&#159;&#164;&#150; Face Shape">
<rect id="Shape" x="25" y="44" width="130" height="120" rx="18" fill="#0076DE"/>
<mask id="mask2" mask-type="alpha" maskUnits="userSpaceOnUse" x="25" y="44" width="130" height="120">
<rect id="Shape_2" x="25" y="44" width="130" height="120" rx="18" fill="white"/>
</mask>
<g mask="url(#mask2)">
<g id="&#226;&#134;&#179; Color Face">
<rect id="Color/19-Blue Grey/200" x="23" y="42" width="134" height="124" fill="#B0BEC5"/>
</g>
</g>
</g>
<g id="&#240;&#159;&#145;&#132; Mouth">
<rect id="Beep Boop" x="76" y="130" width="27" height="8" rx="4" fill="black" fill-opacity="0.8"/>
</g>
<g id="&#240;&#159;&#145;&#129; Eyes">
<g id="Eye">
<path id="Eye_2" fill-rule="evenodd" clip-rule="evenodd" d="M62 112C65.3137 112 68 109.314 68 106C68 102.686 65.3137 100 62 100C58.6863 100 56 102.686 56 106C56 109.314 58.6863 112 62 112Z" fill="white"/>
<path id="Eye_3" fill-rule="evenodd" clip-rule="evenodd" d="M118 112C121.314 112 124 109.314 124 106C124 102.686 121.314 100 118 100C114.686 100 112 102.686 112 106C112 109.314 114.686 112 118 112Z" fill="white"/>
</g>
</g>
</g>
</svg>
