<?xml version="1.0" standalone="no"?><!-- Generator: Gravit.io --><svg xmlns="http://www.w3.org/2000/svg" xmlns:xlink="http://www.w3.org/1999/xlink" style="isolation:isolate" viewBox="0 0 5 5" width="5" height="5"><defs><clipPath id="_clipPath_7HoVUzUWSL71K95ltA6RlJtWitnU97eR"><rect width="5" height="5"/></clipPath></defs><g clip-path="url(#_clipPath_7HoVUzUWSL71K95ltA6RlJtWitnU97eR)"><g id="5"><g id="Group"><g opacity="0"><path d=" M 0 4 L 1 4 L 1 5 L 0 5 L 0 4 Z  M 4 4 L 5 4 L 5 5 L 4 5 L 4 4 Z " fill-rule="evenodd" fill="rgb(0,0,0)"/></g></g><g id="Group"><path d=" M 0 4 L 1 4 L 1 5 L 0 5 L 0 4 Z  M 4 4 L 5 4 L 5 5 L 4 5 L 4 4 Z " fill-rule="evenodd" fill="rgb(0,0,0)"/></g><g id="Group"><path d=" M 0 4 L 2 4 L 2 5 L 0 5 L 0 4 Z  M 3 4 L 5 4 L 5 5 L 3 5 L 3 4 Z " fill-rule="evenodd" fill="rgb(0,0,0)"/></g><g id="Group"><path d=" M 0 4 L 5 4 L 5 5 L 0 5 L 0 4 Z " fill="rgb(0,0,0)"/></g><g id="Group"><path d=" M 2 4 L 3 4 L 3 5 L 2 5 L 2 4 Z " fill="rgb(0,0,0)"/></g><g id="Group"><path d=" M 1 4 L 4 4 L 4 5 L 1 5 L 1 4 Z " fill="rgb(0,0,0)"/></g><g id="Group"><path d=" M 0 4 L 1 4 L 1 5 L 0 5 L 0 4 Z  M 2 4 L 3 4 L 3 5 L 2 5 L 2 4 Z  M 4 4 L 5 4 L 5 5 L 4 5 L 4 4 Z " fill-rule="evenodd" fill="rgb(0,0,0)"/></g></g><g id="4"><g id="Group"><g opacity="0"><path d=" M 0 3 L 1 3 L 1 4 L 0 4 L 0 3 Z  M 4 3 L 5 3 L 5 4 L 4 4 L 4 3 Z " fill-rule="evenodd" fill="rgb(0,0,0)"/></g></g><g id="Group"><path d=" M 0 3 L 1 3 L 1 4 L 0 4 L 0 3 Z  M 4 3 L 5 3 L 5 4 L 4 4 L 4 3 Z " fill-rule="evenodd" fill="rgb(0,0,0)"/></g><g id="Group"><path d=" M 0 3 L 2 3 L 2 4 L 0 4 L 0 3 Z  M 3 3 L 5 3 L 5 4 L 3 4 L 3 3 Z " fill-rule="evenodd" fill="rgb(0,0,0)"/></g><g id="Group"><path d=" M 0 3 L 5 3 L 5 4 L 0 4 L 0 3 Z " fill="rgb(0,0,0)"/></g><g id="Group"><path d=" M 2 3 L 3 3 L 3 4 L 2 4 L 2 3 Z " fill="rgb(0,0,0)"/></g><g id="Group"><path d=" M 1 3 L 4 3 L 4 4 L 1 4 L 1 3 Z " fill="rgb(0,0,0)"/></g><g id="Group"><path d=" M 0 3 L 1 3 L 1 4 L 0 4 L 0 3 Z  M 2 3 L 3 3 L 3 4 L 2 4 L 2 3 Z  M 4 3 L 5 3 L 5 4 L 4 4 L 4 3 Z " fill-rule="evenodd" fill="rgb(0,0,0)"/></g></g><g id="3"><g id="Group"><g opacity="0"><path d=" M 0 2 L 1 2 L 1 3 L 0 3 L 0 2 Z  M 4 2 L 5 2 L 5 3 L 4 3 L 4 2 Z " fill-rule="evenodd" fill="rgb(0,0,0)"/></g></g><g id="Group"><path d=" M 0 2 L 1 2 L 1 3 L 0 3 L 0 2 Z  M 4 2 L 5 2 L 5 3 L 4 3 L 4 2 Z " fill-rule="evenodd" fill="rgb(0,0,0)"/></g><g id="Group"><path d=" M 0 2 L 2 2 L 2 3 L 0 3 L 0 2 Z  M 3 2 L 5 2 L 5 3 L 3 3 L 3 2 Z " fill-rule="evenodd" fill="rgb(0,0,0)"/></g><g id="Group"><path d=" M 0 2 L 5 2 L 5 3 L 0 3 L 0 2 Z " fill="rgb(0,0,0)"/></g><g id="Group"><path d=" M 2 2 L 3 2 L 3 3 L 2 3 L 2 2 Z " fill="rgb(0,0,0)"/></g><g id="Group"><path d=" M 1 2 L 4 2 L 4 3 L 1 3 L 1 2 Z " fill="rgb(0,0,0)"/></g><g id="Group"><path d=" M 0 2 L 1 2 L 1 3 L 0 3 L 0 2 Z  M 2 2 L 3 2 L 3 3 L 2 3 L 2 2 Z  M 4 2 L 5 2 L 5 3 L 4 3 L 4 2 Z " fill-rule="evenodd" fill="rgb(0,0,0)"/></g></g><g id="2"><g id="Group"><g opacity="0"><path d=" M 0 1 L 1 1 L 1 2 L 0 2 L 0 1 Z  M 4 1 L 5 1 L 5 2 L 4 2 L 4 1 Z " fill-rule="evenodd" fill="rgb(0,0,0)"/></g></g><g id="Group"><path d=" M 0 1 L 1 1 L 1 2 L 0 2 L 0 1 Z  M 4 1 L 5 1 L 5 2 L 4 2 L 4 1 Z " fill-rule="evenodd" fill="rgb(0,0,0)"/></g><g id="Group"><path d=" M 0 1 L 2 1 L 2 2 L 0 2 L 0 1 Z  M 3 1 L 5 1 L 5 2 L 3 2 L 3 1 Z " fill-rule="evenodd" fill="rgb(0,0,0)"/></g><g id="Group"><path d=" M 0 1 L 5 1 L 5 2 L 0 2 L 0 1 Z " fill="rgb(0,0,0)"/></g><g id="Group"><path d=" M 2 1 L 3 1 L 3 2 L 2 2 L 2 1 Z " fill="rgb(0,0,0)"/></g><g id="Group"><path d=" M 1 1 L 4 1 L 4 2 L 1 2 L 1 1 Z " fill="rgb(0,0,0)"/></g><g id="Group"><path d=" M 0 1 L 1 1 L 1 2 L 0 2 L 0 1 Z  M 2 1 L 3 1 L 3 2 L 2 2 L 2 1 Z  M 4 1 L 5 1 L 5 2 L 4 2 L 4 1 Z " fill-rule="evenodd" fill="rgb(0,0,0)"/></g></g><g id="1"><g id="Group"><g opacity="0"><path d=" M 0 0 L 1 0 L 1 1 L 0 1 L 0 0 Z  M 4 0 L 5 0 L 5 1 L 4 1 L 4 0 Z " fill-rule="evenodd" fill="rgb(0,0,0)"/></g></g><g id="Group"><path d=" M 0 0 L 1 0 L 1 1 L 0 1 L 0 0 Z  M 4 0 L 5 0 L 5 1 L 4 1 L 4 0 Z " fill-rule="evenodd" fill="rgb(0,0,0)"/></g><g id="Group"><path d=" M 0 0 L 2 0 L 2 1 L 0 1 L 0 0 Z  M 3 0 L 5 0 L 5 1 L 3 1 L 3 0 Z " fill-rule="evenodd" fill="rgb(0,0,0)"/></g><g id="Group"><path d=" M 0 0 L 5 0 L 5 1 L 0 1 L 0 0 Z " fill="rgb(0,0,0)"/></g><g id="Group"><path d=" M 2 0 L 3 0 L 3 1 L 2 1 L 2 0 Z " fill="rgb(0,0,0)"/></g><g id="Group"><path d=" M 1 0 L 4 0 L 4 1 L 1 1 L 1 0 Z " fill="rgb(0,0,0)"/></g><g id="Group"><path d=" M 0 0 L 1 0 L 1 1 L 0 1 L 0 0 Z  M 2 0 L 3 0 L 3 1 L 2 1 L 2 0 Z  M 4 0 L 5 0 L 5 1 L 4 1 L 4 0 Z " fill-rule="evenodd" fill="rgb(0,0,0)"/></g></g></g></svg>