<svg width="1119" height="192" fill="none" xmlns="http://www.w3.org/2000/svg">
  <path d="M309.1 28c14 0 26.4 2.7 37 8.2A58 58 0 0 1 371 60a69 69 0 0 1 8.9 35.3 69 69 0 0 1-8.9 35.3c-5.7 10-14 17.7-24.7 23.2A79.5 79.5 0 0 1 309 162h-46.9V28h46.9Zm-1 111.2c14.1 0 25-3.9 32.7-11.6a43.9 43.9 0 0 0 11.5-32.4c0-14-3.8-24.8-11.5-32.7-7.7-7.9-18.6-11.9-32.7-11.9h-19v88.6h19ZM413.5 43a17 17 0 0 1-11.9-4.5c-3-3-4.6-6.8-4.6-11.3 0-4.5 1.5-8.2 4.6-11.1 3.2-3 7.2-4.6 11.9-4.6s8.6 1.5 11.7 4.6c3.2 3 4.8 6.6 4.8 11.1a15 15 0 0 1-4.8 11.3c-3 3-7 4.5-11.7 4.5Zm13.3 12.6V162h-27V55.6h27ZM446.4 108.8c0-11 2.2-20.6 6.7-28.8a47.2 47.2 0 0 1 18.6-19.2c8-4.6 17-6.9 27.3-6.9 13.2 0 24 3.3 32.6 10a47.5 47.5 0 0 1 17.5 27.6h-29a21.8 21.8 0 0 0-21.3-14.8 22 22 0 0 0-18.2 8.5 36.6 36.6 0 0 0-6.7 23.6 37 37 0 0 0 6.7 23.6 22.3 22.3 0 0 0 18.2 8.3c10.9 0 18-4.9 21.3-14.6h29a49 49 0 0 1-17.5 27.5 51.5 51.5 0 0 1-32.6 10.1 54.5 54.5 0 0 1-27.3-6.7c-7.9-4.6-14.1-11-18.6-19.2-4.5-8.3-6.7-18-6.7-29ZM667.7 106.5c0 3.9-.3 7.3-.8 10.4h-77.7c.6 7.7 3.3 13.7 8 18a24.9 24.9 0 0 0 17.5 6.6c10 0 17-4.3 21.3-13h29a49 49 0 0 1-49.7 35.2 56.7 56.7 0 0 1-27.7-6.7c-8-4.6-14.4-11-19-19.4-4.5-8.3-6.7-17.9-6.7-28.8 0-11 2.2-20.7 6.7-29a46.9 46.9 0 0 1 18.8-19.2c8.1-4.5 17.4-6.7 27.9-6.7 10 0 19.1 2.2 27 6.5A45 45 0 0 1 661 79.1c4.5 7.9 6.7 17 6.7 27.4Zm-27.8-7.7a21 21 0 0 0-7.5-16.5 26.3 26.3 0 0 0-17.9-6.3c-6.6 0-12.3 2-16.9 6.1-4.5 4-7.2 9.6-8.2 16.7h50.5ZM763.3 93.3a30.1 30.1 0 0 1 18.7 11.3 33 33 0 0 1 7.3 21.1 34 34 0 0 1-5.4 19 34.8 34.8 0 0 1-15.2 12.7 56 56 0 0 1-23.6 4.6h-57.8V28h55.3c9.1 0 16.9 1.5 23.4 4.4a31.7 31.7 0 0 1 20.2 30.1c0 7.9-2.1 14.4-6.3 19.6-4.1 5.3-9.6 9-16.6 11.2Zm-49.1-10h24.6c6.4 0 11.3-1.4 14.8-4.2 3.4-3 5.1-7.1 5.1-12.5S757 57 753.6 54c-3.5-3-8.4-4.4-14.8-4.4h-24.6v33.6Zm27 56.8c6.6 0 11.6-1.5 15.2-4.6a16 16 0 0 0 5.6-13c0-5.8-2-10.3-5.8-13.5a23 23 0 0 0-15.5-5h-26.5v36.1h27ZM909.6 106.5c0 3.9-.3 7.3-.8 10.4H831c.7 7.7 3.4 13.7 8.1 18a24.9 24.9 0 0 0 17.5 6.6c10 0 17-4.3 21.3-13h29a49 49 0 0 1-49.8 35.2 56.7 56.7 0 0 1-27.6-6.7c-8-4.6-14.4-11-19-19.4-4.5-8.3-6.7-17.9-6.7-28.8 0-11 2.2-20.7 6.7-29a46.9 46.9 0 0 1 18.8-19.2c8-4.5 17.4-6.7 27.9-6.7 10 0 19 2.2 27 6.5a45 45 0 0 1 18.6 18.7c4.5 7.9 6.8 17 6.8 27.4Zm-27.9-7.7a21 21 0 0 0-7.5-16.5 26.3 26.3 0 0 0-17.8-6.3c-6.7 0-12.3 2-17 6.1-4.4 4-7.1 9.6-8.2 16.7h50.5ZM922.3 108.4c0-10.7 2-20.3 6.3-28.6a48 48 0 0 1 17.5-19.2 47 47 0 0 1 24.8-6.7 42.8 42.8 0 0 1 35 16.9V55.6h27.2V162H1006v-15.6c-3.5 5-8.3 9.2-14.4 12.5a44 44 0 0 1-21 4.8c-8.9 0-17-2.3-24.5-6.9a49.5 49.5 0 0 1-17.5-19.4 64 64 0 0 1-6.3-29Zm83.7.4a34 34 0 0 0-3.9-16.7c-2.5-4.7-6-8.3-10.3-10.7A27.2 27.2 0 0 0 953.6 92a33.5 33.5 0 0 0-3.9 16.4c0 6.4 1.3 12 3.9 17 2.7 4.7 6.1 8.3 10.3 10.9a28.3 28.3 0 0 0 27.8.2 28 28 0 0 0 10.5-10.8 35 35 0 0 0 3.8-16.9ZM1086.2 72.1c3.5-5.6 8-10 13.4-13.2 5.7-3.2 12-4.8 19.2-4.8v28.2h-7c-8.5 0-15 2-19.3 6-4.2 4-6.3 10.9-6.3 20.7v53h-26.9V55.6h26.9v16.5Z" fill="#000" />
  <path fill-rule="evenodd" clip-rule="evenodd" d="M192 12a12 12 0 0 0-12-12H12A12 12 0 0 0 0 12v168a12 12 0 0 0 12 12h102.7a8 8 0 0 0 7-11.7 232.9 232.9 0 0 0-20.2-32.2c-4.6-5.3-14.9-7-26.6-9.1-22.8-4-51-9-52.4-42.4V91l5.2-1.8 31-10.3a8.4 8.4 0 0 0 4.4-3.4c2.9-4.6 9.4-14.2 15.4-19A63 63 0 0 1 110 43.4a11.1 11.1 0 0 0 7.6-6c4-7 11.7-11.4 19.8-10.2a20 20 0 0 1 16.4 23c-.1.9.2 1.7.8 2.3 7 6.3 14.6 15.1 22 25 4.8 6.4 15.4 3.2 15.4-4.7V12Z" fill="#000" />
  <circle r="10" transform="matrix(-1 0 0 1 97 77)" fill="#000" />
</svg>