<?xml version="1.0" standalone="no"?><!-- Generator: Gravit.io --><svg xmlns="http://www.w3.org/2000/svg" xmlns:xlink="http://www.w3.org/1999/xlink" style="isolation:isolate" viewBox="0 0 898 300" width="898" height="300"><defs><clipPath id="_clipPath_8JuLlIFHu5tC9aFEwYD15HZACyviNROG"><rect width="898" height="300"/></clipPath></defs><g clip-path="url(#_clipPath_8JuLlIFHu5tC9aFEwYD15HZACyviNROG)"><linearGradient id="_lgradient_1" x1="0" y1="0.5" x2="1" y2="0.5" gradientTransform="matrix(898,0,0,300,0,0)" gradientUnits="userSpaceOnUse"><stop offset="0%" stop-opacity="1" style="stop-color:rgb(79,172,254)"/><stop offset="100%" stop-opacity="1" style="stop-color:rgb(0,242,254)"/></linearGradient><rect x="0" y="0" width="898" height="300" transform="matrix(1,0,0,1,0,0)" fill="url(#_lgradient_1)"/><g><path d=" M 641.021 155.207 L 641.021 155.207 L 641.021 155.207 Q 641.021 150.885 637.464 148.625 L 637.464 148.625 L 637.464 148.625 Q 633.907 146.364 625.662 144.636 L 625.662 144.636 L 625.662 144.636 Q 617.418 142.907 611.899 140.248 L 611.899 140.248 L 611.899 140.248 Q 599.799 134.397 599.799 123.293 L 599.799 123.293 L 599.799 123.293 Q 599.799 113.985 607.644 107.735 L 607.644 107.735 L 607.644 107.735 Q 615.49 101.485 627.59 101.485 L 627.59 101.485 L 627.59 101.485 Q 640.489 101.485 648.434 107.868 L 648.434 107.868 L 648.434 107.868 Q 656.379 114.251 656.379 124.424 L 656.379 124.424 L 640.223 124.424 L 640.223 124.424 Q 640.223 119.769 636.765 116.678 L 636.765 116.678 L 636.765 116.678 Q 633.308 113.586 627.59 113.586 L 627.59 113.586 L 627.59 113.586 Q 622.271 113.586 618.914 116.046 L 618.914 116.046 L 618.914 116.046 Q 615.556 118.506 615.556 122.628 L 615.556 122.628 L 615.556 122.628 Q 615.556 126.352 618.681 128.413 L 618.681 128.413 L 618.681 128.413 Q 621.806 130.474 631.313 132.568 L 631.313 132.568 L 631.313 132.568 Q 640.821 134.663 646.24 137.555 L 646.24 137.555 L 646.24 137.555 Q 651.659 140.447 654.285 144.503 L 654.285 144.503 L 654.285 144.503 Q 656.911 148.558 656.911 154.343 L 656.911 154.343 L 656.911 154.343 Q 656.911 164.05 648.866 170.067 L 648.866 170.067 L 648.866 170.067 Q 640.821 176.084 627.79 176.084 L 627.79 176.084 L 627.79 176.084 Q 618.947 176.084 612.032 172.893 L 612.032 172.893 L 612.032 172.893 Q 605.118 169.701 601.261 164.116 L 601.261 164.116 L 601.261 164.116 Q 597.405 158.532 597.405 152.082 L 597.405 152.082 L 613.096 152.082 L 613.096 152.082 Q 613.428 157.8 617.418 160.892 L 617.418 160.892 L 617.418 160.892 Q 621.407 163.983 627.989 163.983 L 627.989 163.983 L 627.989 163.983 Q 634.372 163.983 637.696 161.557 L 637.696 161.557 L 637.696 161.557 Q 641.021 159.13 641.021 155.207 Z  M 594.417 102.416 L 594.35 117.575 L 594.35 117.575 Q 591.159 117.043 587.768 117.043 L 587.768 117.043 L 587.768 117.043 Q 576.664 117.043 572.808 125.554 L 572.808 125.554 L 572.808 174.754 L 556.652 174.754 L 556.652 102.815 L 572.077 102.815 L 572.476 110.86 L 572.476 110.86 Q 578.327 101.485 588.699 101.485 L 588.699 101.485 L 588.699 101.485 Q 592.156 101.485 594.417 102.416 L 594.417 102.416 Z  M 550.21 174.754 L 533.721 174.754 L 533.721 174.754 Q 532.657 172.693 531.859 168.039 L 531.859 168.039 L 531.859 168.039 Q 524.147 176.084 512.977 176.084 L 512.977 176.084 L 512.977 176.084 Q 502.139 176.084 495.291 169.901 L 495.291 169.901 L 495.291 169.901 Q 488.443 163.718 488.443 154.609 L 488.443 154.609 L 488.443 154.609 Q 488.443 143.106 496.987 136.956 L 496.987 136.956 L 496.987 136.956 Q 505.53 130.806 521.421 130.806 L 521.421 130.806 L 531.327 130.806 L 531.327 126.086 L 531.327 126.086 Q 531.327 120.501 528.202 117.143 L 528.202 117.143 L 528.202 117.143 Q 525.078 113.786 518.695 113.786 L 518.695 113.786 L 518.695 113.786 Q 513.176 113.786 509.652 116.545 L 509.652 116.545 L 509.652 116.545 Q 506.129 119.304 506.129 123.559 L 506.129 123.559 L 489.972 123.559 L 489.972 123.559 Q 489.972 117.642 493.895 112.489 L 493.895 112.489 L 493.895 112.489 Q 497.818 107.336 504.566 104.411 L 504.566 104.411 L 504.566 104.411 Q 511.315 101.485 519.626 101.485 L 519.626 101.485 L 519.626 101.485 Q 532.258 101.485 539.771 107.835 L 539.771 107.835 L 539.771 107.835 Q 547.284 114.185 547.484 125.687 L 547.484 125.687 L 547.484 158.133 L 547.484 158.133 Q 547.484 167.84 550.21 173.624 L 550.21 173.624 L 550.21 174.754 Z  M 515.969 163.119 L 515.969 163.119 L 515.969 163.119 Q 520.756 163.119 524.978 160.792 L 524.978 160.792 L 524.978 160.792 Q 529.2 158.465 531.327 154.542 L 531.327 154.542 L 531.327 140.979 L 522.618 140.979 L 522.618 140.979 Q 513.642 140.979 509.121 144.104 L 509.121 144.104 L 509.121 144.104 Q 504.599 147.229 504.599 152.947 L 504.599 152.947 L 504.599 152.947 Q 504.599 157.601 507.691 160.36 L 507.691 160.36 L 507.691 160.36 Q 510.783 163.119 515.969 163.119 Z  M 438.984 174.754 L 422.495 174.754 L 422.495 174.754 Q 421.431 172.693 420.633 168.039 L 420.633 168.039 L 420.633 168.039 Q 412.921 176.084 401.751 176.084 L 401.751 176.084 L 401.751 176.084 Q 390.913 176.084 384.065 169.901 L 384.065 169.901 L 384.065 169.901 Q 377.217 163.718 377.217 154.609 L 377.217 154.609 L 377.217 154.609 Q 377.217 143.106 385.761 136.956 L 385.761 136.956 L 385.761 136.956 Q 394.304 130.806 410.195 130.806 L 410.195 130.806 L 420.101 130.806 L 420.101 126.086 L 420.101 126.086 Q 420.101 120.501 416.976 117.143 L 416.976 117.143 L 416.976 117.143 Q 413.851 113.786 407.469 113.786 L 407.469 113.786 L 407.469 113.786 Q 401.95 113.786 398.426 116.545 L 398.426 116.545 L 398.426 116.545 Q 394.903 119.304 394.903 123.559 L 394.903 123.559 L 378.746 123.559 L 378.746 123.559 Q 378.746 117.642 382.669 112.489 L 382.669 112.489 L 382.669 112.489 Q 386.592 107.336 393.34 104.411 L 393.34 104.411 L 393.34 104.411 Q 400.089 101.485 408.399 101.485 L 408.399 101.485 L 408.399 101.485 Q 421.032 101.485 428.545 107.835 L 428.545 107.835 L 428.545 107.835 Q 436.058 114.185 436.258 125.687 L 436.258 125.687 L 436.258 158.133 L 436.258 158.133 Q 436.258 167.84 438.984 173.624 L 438.984 173.624 L 438.984 174.754 Z  M 404.743 163.119 L 404.743 163.119 L 404.743 163.119 Q 409.53 163.119 413.752 160.792 L 413.752 160.792 L 413.752 160.792 Q 417.974 158.465 420.101 154.542 L 420.101 154.542 L 420.101 140.979 L 411.391 140.979 L 411.391 140.979 Q 402.416 140.979 397.895 144.104 L 397.895 144.104 L 397.895 144.104 Q 393.373 147.229 393.373 152.947 L 393.373 152.947 L 393.373 152.947 Q 393.373 157.601 396.465 160.36 L 396.465 160.36 L 396.465 160.36 Q 399.557 163.119 404.743 163.119 Z  M 453.408 85.329 L 469.564 85.329 L 469.564 102.815 L 482.263 102.815 L 482.263 114.783 L 469.564 114.783 L 469.564 154.941 L 469.564 154.941 Q 469.564 159.063 471.193 160.892 L 471.193 160.892 L 471.193 160.892 Q 472.822 162.72 477.011 162.72 L 477.011 162.72 L 477.011 162.72 Q 479.803 162.72 482.662 162.055 L 482.662 162.055 L 482.662 174.555 L 482.662 174.555 Q 477.144 176.084 472.024 176.084 L 472.024 176.084 L 472.024 176.084 Q 453.408 176.084 453.408 155.54 L 453.408 155.54 L 453.408 114.783 L 441.573 114.783 L 441.573 102.815 L 453.408 102.815 L 453.408 85.329 Z  M 329.819 102.815 L 345.244 154.276 L 360.469 102.815 L 377.158 102.815 L 352.225 174.754 L 338.196 174.754 L 313.064 102.815 L 329.819 102.815 Z  M 311.831 174.754 L 303.919 152.215 L 266.421 152.215 L 258.575 174.754 L 241.089 174.754 L 277.657 77.949 L 292.75 77.949 L 329.384 174.754 L 311.831 174.754 Z  M 285.17 98.494 L 271.141 138.652 L 299.199 138.652 L 285.17 98.494 Z " fill-rule="evenodd" fill="rgb(255,255,255)"/><g opacity="0.6"><path d=" M 317.93 97.346 L 312.571 97.346 L 312.571 77.985 L 318.036 77.985 L 318.036 77.985 Q 320.563 77.985 322.504 79.102 L 322.504 79.102 L 322.504 79.102 Q 324.445 80.219 325.503 82.28 L 325.503 82.28 L 325.503 82.28 Q 326.56 84.342 326.573 87.014 L 326.573 87.014 L 326.573 88.251 L 326.573 88.251 Q 326.573 90.99 325.516 93.051 L 325.516 93.051 L 325.516 93.051 Q 324.459 95.112 322.497 96.216 L 322.497 96.216 L 322.497 96.216 Q 320.536 97.32 317.93 97.346 L 317.93 97.346 Z  M 318.102 80.086 L 315.124 80.086 L 315.124 95.259 L 317.81 95.259 L 317.81 95.259 Q 320.762 95.259 322.404 93.424 L 322.404 93.424 L 322.404 93.424 Q 324.046 91.589 324.046 88.198 L 324.046 88.198 L 324.046 87.068 L 324.046 87.068 Q 324.046 83.77 322.497 81.941 L 322.497 81.941 L 322.497 81.941 Q 320.948 80.113 318.102 80.086 L 318.102 80.086 Z  M 332.716 82.959 L 332.716 97.346 L 330.256 97.346 L 330.256 82.959 L 332.716 82.959 Z  M 330.057 79.142 L 330.057 79.142 L 330.057 79.142 Q 330.057 78.544 330.423 78.132 L 330.423 78.132 L 330.423 78.132 Q 330.788 77.719 331.506 77.719 L 331.506 77.719 L 331.506 77.719 Q 332.224 77.719 332.597 78.132 L 332.597 78.132 L 332.597 78.132 Q 332.969 78.544 332.969 79.142 L 332.969 79.142 L 332.969 79.142 Q 332.969 79.741 332.597 80.14 L 332.597 80.14 L 332.597 80.14 Q 332.224 80.538 331.506 80.538 L 331.506 80.538 L 331.506 80.538 Q 330.788 80.538 330.423 80.14 L 330.423 80.14 L 330.423 80.14 Q 330.057 79.741 330.057 79.142 Z  M 342.424 95.604 L 342.424 95.604 L 342.424 95.604 Q 343.74 95.604 344.724 94.807 L 344.724 94.807 L 344.724 94.807 Q 345.708 94.009 345.814 92.812 L 345.814 92.812 L 348.141 92.812 L 348.141 92.812 Q 348.075 94.049 347.29 95.166 L 347.29 95.166 L 347.29 95.166 Q 346.506 96.283 345.196 96.948 L 345.196 96.948 L 345.196 96.948 Q 343.886 97.612 342.424 97.612 L 342.424 97.612 L 342.424 97.612 Q 339.485 97.612 337.749 95.651 L 337.749 95.651 L 337.749 95.651 Q 336.014 93.69 336.014 90.286 L 336.014 90.286 L 336.014 89.873 L 336.014 89.873 Q 336.014 87.772 336.785 86.137 L 336.785 86.137 L 336.785 86.137 Q 337.557 84.501 338.999 83.597 L 338.999 83.597 L 338.999 83.597 Q 340.442 82.693 342.41 82.693 L 342.41 82.693 L 342.41 82.693 Q 344.83 82.693 346.433 84.142 L 346.433 84.142 L 346.433 84.142 Q 348.035 85.592 348.141 87.905 L 348.141 87.905 L 345.814 87.905 L 345.814 87.905 Q 345.708 86.509 344.757 85.611 L 344.757 85.611 L 344.757 85.611 Q 343.806 84.714 342.41 84.714 L 342.41 84.714 L 342.41 84.714 Q 340.535 84.714 339.505 86.064 L 339.505 86.064 L 339.505 86.064 Q 338.474 87.413 338.474 89.966 L 338.474 89.966 L 338.474 90.432 L 338.474 90.432 Q 338.474 92.918 339.498 94.261 L 339.498 94.261 L 339.498 94.261 Q 340.522 95.604 342.424 95.604 Z  M 356.878 97.612 L 356.878 97.612 L 356.878 97.612 Q 353.952 97.612 352.117 95.691 L 352.117 95.691 L 352.117 95.691 Q 350.282 93.769 350.282 90.551 L 350.282 90.551 L 350.282 90.099 L 350.282 90.099 Q 350.282 87.958 351.1 86.276 L 351.1 86.276 L 351.1 86.276 Q 351.918 84.594 353.387 83.643 L 353.387 83.643 L 353.387 83.643 Q 354.857 82.693 356.572 82.693 L 356.572 82.693 L 356.572 82.693 Q 359.378 82.693 360.934 84.541 L 360.934 84.541 L 360.934 84.541 Q 362.489 86.389 362.489 89.833 L 362.489 89.833 L 362.489 90.857 L 352.742 90.857 L 352.742 90.857 Q 352.796 92.985 353.986 94.295 L 353.986 94.295 L 353.986 94.295 Q 355.176 95.604 357.011 95.604 L 357.011 95.604 L 357.011 95.604 Q 358.314 95.604 359.218 95.073 L 359.218 95.073 L 359.218 95.073 Q 360.122 94.541 360.801 93.663 L 360.801 93.663 L 362.303 94.833 L 362.303 94.833 Q 360.495 97.612 356.878 97.612 Z  M 356.572 84.714 L 356.572 84.714 L 356.572 84.714 Q 355.083 84.714 354.072 85.798 L 354.072 85.798 L 354.072 85.798 Q 353.061 86.881 352.822 88.836 L 352.822 88.836 L 360.029 88.836 L 360.029 88.65 L 360.029 88.65 Q 359.923 86.775 359.019 85.744 L 359.019 85.744 L 359.019 85.744 Q 358.115 84.714 356.572 84.714 Z  M 372.436 97.346 L 365.721 97.346 L 365.721 77.985 L 372.05 77.985 L 372.05 77.985 Q 375.202 77.985 376.791 79.289 L 376.791 79.289 L 376.791 79.289 Q 378.38 80.592 378.38 83.145 L 378.38 83.145 L 378.38 83.145 Q 378.38 84.501 377.609 85.545 L 377.609 85.545 L 377.609 85.545 Q 376.837 86.589 375.508 87.161 L 375.508 87.161 L 375.508 87.161 Q 377.077 87.599 377.988 88.829 L 377.988 88.829 L 377.988 88.829 Q 378.898 90.059 378.898 91.762 L 378.898 91.762 L 378.898 91.762 Q 378.898 94.368 377.21 95.857 L 377.21 95.857 L 377.21 95.857 Q 375.521 97.346 372.436 97.346 L 372.436 97.346 Z  M 372.529 88.291 L 368.274 88.291 L 368.274 95.259 L 372.489 95.259 L 372.489 95.259 Q 374.271 95.259 375.301 94.335 L 375.301 94.335 L 375.301 94.335 Q 376.332 93.41 376.332 91.788 L 376.332 91.788 L 376.332 91.788 Q 376.332 88.291 372.529 88.291 L 372.529 88.291 Z  M 368.274 80.086 L 368.274 86.243 L 372.13 86.243 L 372.13 86.243 Q 373.806 86.243 374.809 85.405 L 374.809 85.405 L 374.809 85.405 Q 375.813 84.568 375.813 83.131 L 375.813 83.131 L 375.813 83.131 Q 375.813 81.536 374.883 80.811 L 374.883 80.811 L 374.883 80.811 Q 373.952 80.086 372.05 80.086 L 372.05 80.086 L 368.274 80.086 Z  M 388.26 97.612 L 388.26 97.612 L 388.26 97.612 Q 385.334 97.612 383.499 95.691 L 383.499 95.691 L 383.499 95.691 Q 381.664 93.769 381.664 90.551 L 381.664 90.551 L 381.664 90.099 L 381.664 90.099 Q 381.664 87.958 382.482 86.276 L 382.482 86.276 L 382.482 86.276 Q 383.3 84.594 384.769 83.643 L 384.769 83.643 L 384.769 83.643 Q 386.239 82.693 387.954 82.693 L 387.954 82.693 L 387.954 82.693 Q 390.76 82.693 392.316 84.541 L 392.316 84.541 L 392.316 84.541 Q 393.871 86.389 393.871 89.833 L 393.871 89.833 L 393.871 90.857 L 384.124 90.857 L 384.124 90.857 Q 384.178 92.985 385.368 94.295 L 385.368 94.295 L 385.368 94.295 Q 386.558 95.604 388.393 95.604 L 388.393 95.604 L 388.393 95.604 Q 389.696 95.604 390.6 95.073 L 390.6 95.073 L 390.6 95.073 Q 391.504 94.541 392.183 93.663 L 392.183 93.663 L 393.685 94.833 L 393.685 94.833 Q 391.877 97.612 388.26 97.612 Z  M 387.954 84.714 L 387.954 84.714 L 387.954 84.714 Q 386.465 84.714 385.454 85.798 L 385.454 85.798 L 385.454 85.798 Q 384.443 86.881 384.204 88.836 L 384.204 88.836 L 391.411 88.836 L 391.411 88.65 L 391.411 88.65 Q 391.305 86.775 390.401 85.744 L 390.401 85.744 L 390.401 85.744 Q 389.497 84.714 387.954 84.714 Z  M 408.179 97.346 L 405.6 97.346 L 405.6 97.346 Q 405.387 96.921 405.254 95.831 L 405.254 95.831 L 405.254 95.831 Q 403.539 97.612 401.158 97.612 L 401.158 97.612 L 401.158 97.612 Q 399.031 97.612 397.668 96.409 L 397.668 96.409 L 397.668 96.409 Q 396.305 95.206 396.305 93.357 L 396.305 93.357 L 396.305 93.357 Q 396.305 91.11 398.014 89.867 L 398.014 89.867 L 398.014 89.867 Q 399.722 88.623 402.821 88.623 L 402.821 88.623 L 405.214 88.623 L 405.214 87.493 L 405.214 87.493 Q 405.214 86.203 404.443 85.439 L 404.443 85.439 L 404.443 85.439 Q 403.672 84.674 402.169 84.674 L 402.169 84.674 L 402.169 84.674 Q 400.853 84.674 399.962 85.339 L 399.962 85.339 L 399.962 85.339 Q 399.071 86.004 399.071 86.948 L 399.071 86.948 L 396.597 86.948 L 396.597 86.948 Q 396.597 85.871 397.362 84.867 L 397.362 84.867 L 397.362 84.867 Q 398.127 83.863 399.436 83.278 L 399.436 83.278 L 399.436 83.278 Q 400.746 82.693 402.315 82.693 L 402.315 82.693 L 402.315 82.693 Q 404.802 82.693 406.211 83.936 L 406.211 83.936 L 406.211 83.936 Q 407.621 85.179 407.674 87.36 L 407.674 87.36 L 407.674 93.982 L 407.674 93.982 Q 407.674 95.964 408.179 97.134 L 408.179 97.134 L 408.179 97.346 Z  M 401.517 95.472 L 401.517 95.472 L 401.517 95.472 Q 402.674 95.472 403.711 94.873 L 403.711 94.873 L 403.711 94.873 Q 404.749 94.275 405.214 93.317 L 405.214 93.317 L 405.214 90.365 L 403.286 90.365 L 403.286 90.365 Q 398.765 90.365 398.765 93.011 L 398.765 93.011 L 398.765 93.011 Q 398.765 94.168 399.536 94.82 L 399.536 94.82 L 399.536 94.82 Q 400.307 95.472 401.517 95.472 Z  M 418.485 82.879 L 418.485 85.166 L 418.485 85.166 Q 417.926 85.073 417.275 85.073 L 417.275 85.073 L 417.275 85.073 Q 414.855 85.073 413.99 87.134 L 413.99 87.134 L 413.99 97.346 L 411.53 97.346 L 411.53 82.959 L 413.924 82.959 L 413.964 84.621 L 413.964 84.621 Q 415.174 82.693 417.395 82.693 L 417.395 82.693 L 417.395 82.693 Q 418.113 82.693 418.485 82.879 L 418.485 82.879 Z " fill-rule="evenodd" fill="rgb(255,255,255)"/></g></g><path d=" M 551.195 216.05 L 551.195 216.05 L 551.195 216.05 Q 548.585 216.05 547.076 214.46 L 547.076 214.46 L 547.076 214.46 Q 545.566 212.87 545.566 210.045 L 545.566 210.045 L 545.566 210.045 Q 545.566 207.199 546.968 205.523 L 546.968 205.523 L 546.968 205.523 Q 548.37 203.847 550.733 203.847 L 550.733 203.847 L 550.733 203.847 Q 552.946 203.847 554.235 205.303 L 554.235 205.303 L 554.235 205.303 Q 555.524 206.758 555.524 209.143 L 555.524 209.143 L 555.524 210.271 L 547.414 210.271 L 547.414 210.271 Q 547.468 212.344 548.461 213.418 L 548.461 213.418 L 548.461 213.418 Q 549.455 214.492 551.26 214.492 L 551.26 214.492 L 551.26 214.492 Q 553.161 214.492 555.02 213.698 L 555.02 213.698 L 555.02 215.287 L 555.02 215.287 Q 554.074 215.696 553.231 215.873 L 553.231 215.873 L 553.231 215.873 Q 552.388 216.05 551.195 216.05 Z  M 550.712 205.34 L 550.712 205.34 L 550.712 205.34 Q 549.294 205.34 548.451 206.264 L 548.451 206.264 L 548.451 206.264 Q 547.607 207.188 547.457 208.821 L 547.457 208.821 L 553.612 208.821 L 553.612 208.821 Q 553.612 207.134 552.86 206.237 L 552.86 206.237 L 552.86 206.237 Q 552.108 205.34 550.712 205.34 Z  M 563.227 215.835 L 561.143 215.835 L 556.674 204.062 L 558.586 204.062 L 561.121 211.044 L 561.121 211.044 Q 561.98 213.493 562.131 214.224 L 562.131 214.224 L 562.217 214.224 L 562.217 214.224 Q 562.335 213.655 562.963 211.866 L 562.963 211.866 L 562.963 211.866 Q 563.592 210.077 565.783 204.062 L 565.783 204.062 L 567.695 204.062 L 563.227 215.835 L 563.227 215.835 Z  M 574.56 216.05 L 574.56 216.05 L 574.56 216.05 Q 571.949 216.05 570.44 214.46 L 570.44 214.46 L 570.44 214.46 Q 568.931 212.87 568.931 210.045 L 568.931 210.045 L 568.931 210.045 Q 568.931 207.199 570.333 205.523 L 570.333 205.523 L 570.333 205.523 Q 571.734 203.847 574.098 203.847 L 574.098 203.847 L 574.098 203.847 Q 576.311 203.847 577.6 205.303 L 577.6 205.303 L 577.6 205.303 Q 578.889 206.758 578.889 209.143 L 578.889 209.143 L 578.889 210.271 L 570.778 210.271 L 570.778 210.271 Q 570.832 212.344 571.826 213.418 L 571.826 213.418 L 571.826 213.418 Q 572.819 214.492 574.624 214.492 L 574.624 214.492 L 574.624 214.492 Q 576.525 214.492 578.384 213.698 L 578.384 213.698 L 578.384 215.287 L 578.384 215.287 Q 577.438 215.696 576.595 215.873 L 576.595 215.873 L 576.595 215.873 Q 575.752 216.05 574.56 216.05 Z  M 574.076 205.34 L 574.076 205.34 L 574.076 205.34 Q 572.658 205.34 571.815 206.264 L 571.815 206.264 L 571.815 206.264 Q 570.972 207.188 570.821 208.821 L 570.821 208.821 L 576.977 208.821 L 576.977 208.821 Q 576.977 207.134 576.225 206.237 L 576.225 206.237 L 576.225 206.237 Q 575.473 205.34 574.076 205.34 Z  M 587.3 203.847 L 587.3 203.847 L 587.3 203.847 Q 588.084 203.847 588.707 203.976 L 588.707 203.976 L 588.46 205.63 L 588.46 205.63 Q 587.729 205.469 587.171 205.469 L 587.171 205.469 L 587.171 205.469 Q 585.742 205.469 584.727 206.629 L 584.727 206.629 L 584.727 206.629 Q 583.712 207.789 583.712 209.519 L 583.712 209.519 L 583.712 215.835 L 581.929 215.835 L 581.929 204.062 L 583.4 204.062 L 583.604 206.242 L 583.69 206.242 L 583.69 206.242 Q 584.346 205.093 585.27 204.47 L 585.27 204.47 L 585.27 204.47 Q 586.193 203.847 587.3 203.847 Z  M 593.788 215.9 L 589.04 204.062 L 590.952 204.062 L 593.53 210.776 L 593.53 210.776 Q 594.379 213.075 594.583 214.095 L 594.583 214.095 L 594.669 214.095 L 594.669 214.095 Q 594.809 213.547 595.254 212.221 L 595.254 212.221 L 595.254 212.221 Q 595.7 210.894 598.171 204.062 L 598.171 204.062 L 600.083 204.062 L 595.023 217.468 L 595.023 217.468 Q 594.271 219.455 593.267 220.288 L 593.267 220.288 L 593.267 220.288 Q 592.263 221.12 590.802 221.12 L 590.802 221.12 L 590.802 221.12 Q 589.985 221.12 589.19 220.938 L 589.19 220.938 L 589.19 219.509 L 589.19 219.509 Q 589.781 219.638 590.512 219.638 L 590.512 219.638 L 590.512 219.638 Q 592.349 219.638 593.133 217.576 L 593.133 217.576 L 593.788 215.9 L 593.788 215.9 Z  M 612.157 209.938 L 612.157 209.938 L 612.157 209.938 Q 612.157 212.817 610.707 214.433 L 610.707 214.433 L 610.707 214.433 Q 609.257 216.05 606.7 216.05 L 606.7 216.05 L 606.7 216.05 Q 605.121 216.05 603.896 215.309 L 603.896 215.309 L 603.896 215.309 Q 602.672 214.568 602.006 213.182 L 602.006 213.182 L 602.006 213.182 Q 601.34 211.796 601.34 209.938 L 601.34 209.938 L 601.34 209.938 Q 601.34 207.059 602.779 205.453 L 602.779 205.453 L 602.779 205.453 Q 604.219 203.847 606.775 203.847 L 606.775 203.847 L 606.775 203.847 Q 609.246 203.847 610.702 205.491 L 610.702 205.491 L 610.702 205.491 Q 612.157 207.134 612.157 209.938 Z  M 603.188 209.938 L 603.188 209.938 L 603.188 209.938 Q 603.188 212.194 604.09 213.375 L 604.09 213.375 L 604.09 213.375 Q 604.992 214.557 606.743 214.557 L 606.743 214.557 L 606.743 214.557 Q 608.494 214.557 609.402 213.381 L 609.402 213.381 L 609.402 213.381 Q 610.31 212.204 610.31 209.938 L 610.31 209.938 L 610.31 209.938 Q 610.31 207.693 609.402 206.527 L 609.402 206.527 L 609.402 206.527 Q 608.494 205.362 606.722 205.362 L 606.722 205.362 L 606.722 205.362 Q 604.971 205.362 604.079 206.511 L 604.079 206.511 L 604.079 206.511 Q 603.188 207.66 603.188 209.938 Z  M 625.123 215.835 L 623.34 215.835 L 623.34 208.219 L 623.34 208.219 Q 623.34 206.78 622.685 206.071 L 622.685 206.071 L 622.685 206.071 Q 622.029 205.362 620.633 205.362 L 620.633 205.362 L 620.633 205.362 Q 618.785 205.362 617.926 206.361 L 617.926 206.361 L 617.926 206.361 Q 617.066 207.36 617.066 209.659 L 617.066 209.659 L 617.066 215.835 L 615.283 215.835 L 615.283 204.062 L 616.733 204.062 L 617.023 205.673 L 617.109 205.673 L 617.109 205.673 Q 617.657 204.803 618.646 204.325 L 618.646 204.325 L 618.646 204.325 Q 619.634 203.847 620.848 203.847 L 620.848 203.847 L 620.848 203.847 Q 622.975 203.847 624.049 204.873 L 624.049 204.873 L 624.049 204.873 Q 625.123 205.899 625.123 208.155 L 625.123 208.155 L 625.123 215.835 L 625.123 215.835 Z  M 633.76 216.05 L 633.76 216.05 L 633.76 216.05 Q 631.149 216.05 629.64 214.46 L 629.64 214.46 L 629.64 214.46 Q 628.131 212.87 628.131 210.045 L 628.131 210.045 L 628.131 210.045 Q 628.131 207.199 629.533 205.523 L 629.533 205.523 L 629.533 205.523 Q 630.935 203.847 633.298 203.847 L 633.298 203.847 L 633.298 203.847 Q 635.511 203.847 636.8 205.303 L 636.8 205.303 L 636.8 205.303 Q 638.089 206.758 638.089 209.143 L 638.089 209.143 L 638.089 210.271 L 629.979 210.271 L 629.979 210.271 Q 630.032 212.344 631.026 213.418 L 631.026 213.418 L 631.026 213.418 Q 632.02 214.492 633.824 214.492 L 633.824 214.492 L 633.824 214.492 Q 635.726 214.492 637.584 213.698 L 637.584 213.698 L 637.584 215.287 L 637.584 215.287 Q 636.639 215.696 635.795 215.873 L 635.795 215.873 L 635.795 215.873 Q 634.952 216.05 633.76 216.05 Z  M 633.276 205.34 L 633.276 205.34 L 633.276 205.34 Q 631.858 205.34 631.015 206.264 L 631.015 206.264 L 631.015 206.264 Q 630.172 207.188 630.021 208.821 L 630.021 208.821 L 636.177 208.821 L 636.177 208.821 Q 636.177 207.134 635.425 206.237 L 635.425 206.237 L 635.425 206.237 Q 634.673 205.34 633.276 205.34 Z  M 640.871 214.697 L 640.871 214.697 L 640.871 214.697 Q 640.871 213.977 641.199 213.606 L 641.199 213.606 L 641.199 213.606 Q 641.526 213.236 642.139 213.236 L 642.139 213.236 L 642.139 213.236 Q 642.762 213.236 643.111 213.606 L 643.111 213.606 L 643.111 213.606 Q 643.46 213.977 643.46 214.697 L 643.46 214.697 L 643.46 214.697 Q 643.46 215.395 643.105 215.771 L 643.105 215.771 L 643.105 215.771 Q 642.751 216.147 642.139 216.147 L 642.139 216.147 L 642.139 216.147 Q 641.591 216.147 641.231 215.808 L 641.231 215.808 L 641.231 215.808 Q 640.871 215.47 640.871 214.697 Z  M 516.09 204.062 L 516.09 205.448 L 513.093 205.448 L 513.093 215.835 L 511.31 215.835 L 511.31 205.448 L 509.204 205.448 L 509.204 204.642 L 511.31 203.997 L 511.31 203.342 L 511.31 203.342 Q 511.31 199.002 515.102 199.002 L 515.102 199.002 L 515.102 199.002 Q 516.036 199.002 517.293 199.378 L 517.293 199.378 L 516.831 200.807 L 516.831 200.807 Q 515.8 200.474 515.069 200.474 L 515.069 200.474 L 515.069 200.474 Q 514.06 200.474 513.576 201.145 L 513.576 201.145 L 513.576 201.145 Q 513.093 201.817 513.093 203.299 L 513.093 203.299 L 513.093 204.062 L 516.09 204.062 L 516.09 204.062 Z  M 528.4 209.938 L 528.4 209.938 L 528.4 209.938 Q 528.4 212.817 526.95 214.433 L 526.95 214.433 L 526.95 214.433 Q 525.5 216.05 522.943 216.05 L 522.943 216.05 L 522.943 216.05 Q 521.364 216.05 520.14 215.309 L 520.14 215.309 L 520.14 215.309 Q 518.915 214.568 518.249 213.182 L 518.249 213.182 L 518.249 213.182 Q 517.583 211.796 517.583 209.938 L 517.583 209.938 L 517.583 209.938 Q 517.583 207.059 519.022 205.453 L 519.022 205.453 L 519.022 205.453 Q 520.462 203.847 523.019 203.847 L 523.019 203.847 L 523.019 203.847 Q 525.489 203.847 526.945 205.491 L 526.945 205.491 L 526.945 205.491 Q 528.4 207.134 528.4 209.938 Z  M 519.431 209.938 L 519.431 209.938 L 519.431 209.938 Q 519.431 212.194 520.333 213.375 L 520.333 213.375 L 520.333 213.375 Q 521.235 214.557 522.986 214.557 L 522.986 214.557 L 522.986 214.557 Q 524.737 214.557 525.645 213.381 L 525.645 213.381 L 525.645 213.381 Q 526.553 212.204 526.553 209.938 L 526.553 209.938 L 526.553 209.938 Q 526.553 207.693 525.645 206.527 L 525.645 206.527 L 525.645 206.527 Q 524.737 205.362 522.965 205.362 L 522.965 205.362 L 522.965 205.362 Q 521.214 205.362 520.322 206.511 L 520.322 206.511 L 520.322 206.511 Q 519.431 207.66 519.431 209.938 Z  M 536.897 203.847 L 536.897 203.847 L 536.897 203.847 Q 537.682 203.847 538.305 203.976 L 538.305 203.976 L 538.058 205.63 L 538.058 205.63 Q 537.327 205.469 536.769 205.469 L 536.769 205.469 L 536.769 205.469 Q 535.34 205.469 534.325 206.629 L 534.325 206.629 L 534.325 206.629 Q 533.31 207.789 533.31 209.519 L 533.31 209.519 L 533.31 215.835 L 531.526 215.835 L 531.526 204.062 L 532.998 204.062 L 533.202 206.242 L 533.288 206.242 L 533.288 206.242 Q 533.943 205.093 534.867 204.47 L 534.867 204.47 L 534.867 204.47 Q 535.791 203.847 536.897 203.847 Z  M 378.794 216.05 L 378.794 216.05 L 378.794 216.05 Q 377.645 216.05 376.694 215.626 L 376.694 215.626 L 376.694 215.626 Q 375.743 215.201 375.099 214.321 L 375.099 214.321 L 374.97 214.321 L 374.97 214.321 Q 375.099 215.352 375.099 216.276 L 375.099 216.276 L 375.099 221.12 L 373.315 221.12 L 373.315 204.062 L 374.766 204.062 L 375.013 205.673 L 375.099 205.673 L 375.099 205.673 Q 375.786 204.706 376.699 204.277 L 376.699 204.277 L 376.699 204.277 Q 377.612 203.847 378.794 203.847 L 378.794 203.847 L 378.794 203.847 Q 381.136 203.847 382.409 205.448 L 382.409 205.448 L 382.409 205.448 Q 383.682 207.048 383.682 209.938 L 383.682 209.938 L 383.682 209.938 Q 383.682 212.838 382.387 214.444 L 382.387 214.444 L 382.387 214.444 Q 381.093 216.05 378.794 216.05 Z  M 378.536 205.362 L 378.536 205.362 L 378.536 205.362 Q 376.731 205.362 375.926 206.361 L 375.926 206.361 L 375.926 206.361 Q 375.12 207.36 375.099 209.54 L 375.099 209.54 L 375.099 209.938 L 375.099 209.938 Q 375.099 212.419 375.926 213.488 L 375.926 213.488 L 375.926 213.488 Q 376.753 214.557 378.579 214.557 L 378.579 214.557 L 378.579 214.557 Q 380.104 214.557 380.969 213.322 L 380.969 213.322 L 380.969 213.322 Q 381.834 212.086 381.834 209.916 L 381.834 209.916 L 381.834 209.916 Q 381.834 207.714 380.969 206.538 L 380.969 206.538 L 380.969 206.538 Q 380.104 205.362 378.536 205.362 Z  M 388.58 199.12 L 388.58 215.835 L 386.797 215.835 L 386.797 199.12 L 388.58 199.12 L 388.58 199.12 Z  M 400.923 215.835 L 399.602 215.835 L 399.247 214.159 L 399.161 214.159 L 399.161 214.159 Q 398.28 215.266 397.405 215.658 L 397.405 215.658 L 397.405 215.658 Q 396.529 216.05 395.219 216.05 L 395.219 216.05 L 395.219 216.05 Q 393.468 216.05 392.474 215.148 L 392.474 215.148 L 392.474 215.148 Q 391.48 214.245 391.48 212.58 L 391.48 212.58 L 391.48 212.58 Q 391.48 209.014 397.185 208.842 L 397.185 208.842 L 399.183 208.778 L 399.183 208.047 L 399.183 208.047 Q 399.183 206.661 398.586 206.001 L 398.586 206.001 L 398.586 206.001 Q 397.99 205.34 396.68 205.34 L 396.68 205.34 L 396.68 205.34 Q 395.208 205.34 393.35 206.242 L 393.35 206.242 L 392.802 204.878 L 392.802 204.878 Q 393.672 204.406 394.708 204.137 L 394.708 204.137 L 394.708 204.137 Q 395.745 203.868 396.787 203.868 L 396.787 203.868 L 396.787 203.868 Q 398.893 203.868 399.908 204.803 L 399.908 204.803 L 399.908 204.803 Q 400.923 205.738 400.923 207.8 L 400.923 207.8 L 400.923 215.835 L 400.923 215.835 Z  M 395.573 214.578 L 395.573 214.578 L 395.573 214.578 Q 397.238 214.578 398.189 213.665 L 398.189 213.665 L 398.189 213.665 Q 399.14 212.752 399.14 211.109 L 399.14 211.109 L 399.14 210.045 L 397.356 210.12 L 397.356 210.12 Q 395.229 210.196 394.29 210.781 L 394.29 210.781 L 394.29 210.781 Q 393.35 211.367 393.35 212.602 L 393.35 212.602 L 393.35 212.602 Q 393.35 213.569 393.935 214.074 L 393.935 214.074 L 393.935 214.074 Q 394.521 214.578 395.573 214.578 Z  M 409.302 216.05 L 409.302 216.05 L 409.302 216.05 Q 406.745 216.05 405.343 214.476 L 405.343 214.476 L 405.343 214.476 Q 403.941 212.903 403.941 210.024 L 403.941 210.024 L 403.941 210.024 Q 403.941 207.07 405.365 205.458 L 405.365 205.458 L 405.365 205.458 Q 406.788 203.847 409.42 203.847 L 409.42 203.847 L 409.42 203.847 Q 410.269 203.847 411.117 204.03 L 411.117 204.03 L 411.117 204.03 Q 411.966 204.212 412.449 204.459 L 412.449 204.459 L 411.901 205.974 L 411.901 205.974 Q 411.311 205.738 410.612 205.582 L 410.612 205.582 L 410.612 205.582 Q 409.914 205.426 409.377 205.426 L 409.377 205.426 L 409.377 205.426 Q 405.789 205.426 405.789 210.002 L 405.789 210.002 L 405.789 210.002 Q 405.789 212.172 406.665 213.332 L 406.665 213.332 L 406.665 213.332 Q 407.54 214.492 409.259 214.492 L 409.259 214.492 L 409.259 214.492 Q 410.73 214.492 412.277 213.859 L 412.277 213.859 L 412.277 215.438 L 412.277 215.438 Q 411.096 216.05 409.302 216.05 Z  M 420.044 216.05 L 420.044 216.05 L 420.044 216.05 Q 417.434 216.05 415.924 214.46 L 415.924 214.46 L 415.924 214.46 Q 414.415 212.87 414.415 210.045 L 414.415 210.045 L 414.415 210.045 Q 414.415 207.199 415.817 205.523 L 415.817 205.523 L 415.817 205.523 Q 417.219 203.847 419.582 203.847 L 419.582 203.847 L 419.582 203.847 Q 421.795 203.847 423.084 205.303 L 423.084 205.303 L 423.084 205.303 Q 424.373 206.758 424.373 209.143 L 424.373 209.143 L 424.373 210.271 L 416.263 210.271 L 416.263 210.271 Q 416.316 212.344 417.31 213.418 L 417.31 213.418 L 417.31 213.418 Q 418.304 214.492 420.108 214.492 L 420.108 214.492 L 420.108 214.492 Q 422.01 214.492 423.868 213.698 L 423.868 213.698 L 423.868 215.287 L 423.868 215.287 Q 422.923 215.696 422.08 215.873 L 422.08 215.873 L 422.08 215.873 Q 421.236 216.05 420.044 216.05 Z  M 419.561 205.34 L 419.561 205.34 L 419.561 205.34 Q 418.143 205.34 417.299 206.264 L 417.299 206.264 L 417.299 206.264 Q 416.456 207.188 416.306 208.821 L 416.306 208.821 L 422.461 208.821 L 422.461 208.821 Q 422.461 207.134 421.709 206.237 L 421.709 206.237 L 421.709 206.237 Q 420.957 205.34 419.561 205.34 Z  M 437.253 215.835 L 435.47 215.835 L 435.47 208.219 L 435.47 208.219 Q 435.47 206.78 434.814 206.071 L 434.814 206.071 L 434.814 206.071 Q 434.159 205.362 432.763 205.362 L 432.763 205.362 L 432.763 205.362 Q 430.904 205.362 430.05 206.371 L 430.05 206.371 L 430.05 206.371 Q 429.196 207.381 429.196 209.68 L 429.196 209.68 L 429.196 215.835 L 427.413 215.835 L 427.413 199.12 L 429.196 199.12 L 429.196 204.18 L 429.196 204.18 Q 429.196 205.093 429.11 205.695 L 429.11 205.695 L 429.218 205.695 L 429.218 205.695 Q 429.744 204.846 430.716 204.357 L 430.716 204.357 L 430.716 204.357 Q 431.688 203.868 432.935 203.868 L 432.935 203.868 L 432.935 203.868 Q 435.094 203.868 436.173 204.894 L 436.173 204.894 L 436.173 204.894 Q 437.253 205.92 437.253 208.155 L 437.253 208.155 L 437.253 215.835 L 437.253 215.835 Z  M 451.078 209.938 L 451.078 209.938 L 451.078 209.938 Q 451.078 212.817 449.628 214.433 L 449.628 214.433 L 449.628 214.433 Q 448.178 216.05 445.621 216.05 L 445.621 216.05 L 445.621 216.05 Q 444.042 216.05 442.817 215.309 L 442.817 215.309 L 442.817 215.309 Q 441.593 214.568 440.927 213.182 L 440.927 213.182 L 440.927 213.182 Q 440.261 211.796 440.261 209.938 L 440.261 209.938 L 440.261 209.938 Q 440.261 207.059 441.7 205.453 L 441.7 205.453 L 441.7 205.453 Q 443.14 203.847 445.696 203.847 L 445.696 203.847 L 445.696 203.847 Q 448.167 203.847 449.623 205.491 L 449.623 205.491 L 449.623 205.491 Q 451.078 207.134 451.078 209.938 Z  M 442.108 209.938 L 442.108 209.938 L 442.108 209.938 Q 442.108 212.194 443.011 213.375 L 443.011 213.375 L 443.011 213.375 Q 443.913 214.557 445.664 214.557 L 445.664 214.557 L 445.664 214.557 Q 447.415 214.557 448.323 213.381 L 448.323 213.381 L 448.323 213.381 Q 449.23 212.204 449.23 209.938 L 449.23 209.938 L 449.23 209.938 Q 449.23 207.693 448.323 206.527 L 448.323 206.527 L 448.323 206.527 Q 447.415 205.362 445.643 205.362 L 445.643 205.362 L 445.643 205.362 Q 443.892 205.362 443 206.511 L 443 206.511 L 443 206.511 Q 442.108 207.66 442.108 209.938 Z  M 455.987 199.12 L 455.987 215.835 L 454.204 215.835 L 454.204 199.12 L 455.987 199.12 L 455.987 199.12 Z  M 468.019 215.835 L 467.782 214.256 L 467.686 214.256 L 467.686 214.256 Q 466.45 216.05 463.99 216.05 L 463.99 216.05 L 463.99 216.05 Q 461.681 216.05 460.397 214.471 L 460.397 214.471 L 460.397 214.471 Q 459.113 212.892 459.113 209.981 L 459.113 209.981 L 459.113 209.981 Q 459.113 207.07 460.402 205.458 L 460.402 205.458 L 460.402 205.458 Q 461.691 203.847 463.99 203.847 L 463.99 203.847 L 463.99 203.847 Q 466.386 203.847 467.664 205.587 L 467.664 205.587 L 467.804 205.587 L 467.729 204.739 L 467.686 203.911 L 467.686 199.12 L 469.469 199.12 L 469.469 215.835 L 468.019 215.835 L 468.019 215.835 Z  M 464.216 214.557 L 464.216 214.557 L 464.216 214.557 Q 466.042 214.557 466.864 213.563 L 466.864 213.563 L 466.864 213.563 Q 467.686 212.57 467.686 210.357 L 467.686 210.357 L 467.686 209.981 L 467.686 209.981 Q 467.686 207.478 466.853 206.409 L 466.853 206.409 L 466.853 206.409 Q 466.021 205.34 464.194 205.34 L 464.194 205.34 L 464.194 205.34 Q 462.626 205.34 461.793 206.559 L 461.793 206.559 L 461.793 206.559 Q 460.961 207.779 460.961 210.002 L 460.961 210.002 L 460.961 210.002 Q 460.961 212.258 461.788 213.408 L 461.788 213.408 L 461.788 213.408 Q 462.615 214.557 464.216 214.557 Z  M 478.224 216.05 L 478.224 216.05 L 478.224 216.05 Q 475.613 216.05 474.104 214.46 L 474.104 214.46 L 474.104 214.46 Q 472.595 212.87 472.595 210.045 L 472.595 210.045 L 472.595 210.045 Q 472.595 207.199 473.997 205.523 L 473.997 205.523 L 473.997 205.523 Q 475.398 203.847 477.762 203.847 L 477.762 203.847 L 477.762 203.847 Q 479.975 203.847 481.264 205.303 L 481.264 205.303 L 481.264 205.303 Q 482.553 206.758 482.553 209.143 L 482.553 209.143 L 482.553 210.271 L 474.442 210.271 L 474.442 210.271 Q 474.496 212.344 475.49 213.418 L 475.49 213.418 L 475.49 213.418 Q 476.483 214.492 478.288 214.492 L 478.288 214.492 L 478.288 214.492 Q 480.189 214.492 482.048 213.698 L 482.048 213.698 L 482.048 215.287 L 482.048 215.287 Q 481.103 215.696 480.259 215.873 L 480.259 215.873 L 480.259 215.873 Q 479.416 216.05 478.224 216.05 Z  M 477.74 205.34 L 477.74 205.34 L 477.74 205.34 Q 476.322 205.34 475.479 206.264 L 475.479 206.264 L 475.479 206.264 Q 474.636 207.188 474.485 208.821 L 474.485 208.821 L 480.641 208.821 L 480.641 208.821 Q 480.641 207.134 479.889 206.237 L 479.889 206.237 L 479.889 206.237 Q 479.137 205.34 477.74 205.34 Z  M 490.964 203.847 L 490.964 203.847 L 490.964 203.847 Q 491.748 203.847 492.371 203.976 L 492.371 203.976 L 492.124 205.63 L 492.124 205.63 Q 491.394 205.469 490.835 205.469 L 490.835 205.469 L 490.835 205.469 Q 489.406 205.469 488.391 206.629 L 488.391 206.629 L 488.391 206.629 Q 487.376 207.789 487.376 209.519 L 487.376 209.519 L 487.376 215.835 L 485.593 215.835 L 485.593 204.062 L 487.064 204.062 L 487.269 206.242 L 487.354 206.242 L 487.354 206.242 Q 488.01 205.093 488.934 204.47 L 488.934 204.47 L 488.934 204.47 Q 489.857 203.847 490.964 203.847 Z  M 502.168 212.623 L 502.168 212.623 L 502.168 212.623 Q 502.168 214.267 500.943 215.159 L 500.943 215.159 L 500.943 215.159 Q 499.719 216.05 497.506 216.05 L 497.506 216.05 L 497.506 216.05 Q 495.164 216.05 493.854 215.309 L 493.854 215.309 L 493.854 213.655 L 493.854 213.655 Q 494.702 214.084 495.674 214.331 L 495.674 214.331 L 495.674 214.331 Q 496.646 214.578 497.549 214.578 L 497.549 214.578 L 497.549 214.578 Q 498.945 214.578 499.697 214.133 L 499.697 214.133 L 499.697 214.133 Q 500.449 213.687 500.449 212.774 L 500.449 212.774 L 500.449 212.774 Q 500.449 212.086 499.853 211.597 L 499.853 211.597 L 499.853 211.597 Q 499.257 211.109 497.527 210.443 L 497.527 210.443 L 497.527 210.443 Q 495.884 209.83 495.191 209.374 L 495.191 209.374 L 495.191 209.374 Q 494.498 208.917 494.16 208.337 L 494.16 208.337 L 494.16 208.337 Q 493.821 207.757 493.821 206.951 L 493.821 206.951 L 493.821 206.951 Q 493.821 205.512 494.992 204.68 L 494.992 204.68 L 494.992 204.68 Q 496.163 203.847 498.204 203.847 L 498.204 203.847 L 498.204 203.847 Q 500.105 203.847 501.921 204.62 L 501.921 204.62 L 501.287 206.071 L 501.287 206.071 Q 499.515 205.34 498.075 205.34 L 498.075 205.34 L 498.075 205.34 Q 496.808 205.34 496.163 205.738 L 496.163 205.738 L 496.163 205.738 Q 495.519 206.135 495.519 206.833 L 495.519 206.833 L 495.519 206.833 Q 495.519 207.306 495.76 207.639 L 495.76 207.639 L 495.76 207.639 Q 496.002 207.972 496.539 208.273 L 496.539 208.273 L 496.539 208.273 Q 497.076 208.574 498.602 209.143 L 498.602 209.143 L 498.602 209.143 Q 500.696 209.906 501.432 210.679 L 501.432 210.679 L 501.432 210.679 Q 502.168 211.452 502.168 212.623 Z  M 311.687 215.835 L 310.366 215.835 L 310.012 214.159 L 309.926 214.159 L 309.926 214.159 Q 309.045 215.266 308.169 215.658 L 308.169 215.658 L 308.169 215.658 Q 307.294 216.05 305.983 216.05 L 305.983 216.05 L 305.983 216.05 Q 304.232 216.05 303.239 215.148 L 303.239 215.148 L 303.239 215.148 Q 302.245 214.245 302.245 212.58 L 302.245 212.58 L 302.245 212.58 Q 302.245 209.014 307.949 208.842 L 307.949 208.842 L 309.947 208.778 L 309.947 208.047 L 309.947 208.047 Q 309.947 206.661 309.351 206.001 L 309.351 206.001 L 309.351 206.001 Q 308.755 205.34 307.444 205.34 L 307.444 205.34 L 307.444 205.34 Q 305.973 205.34 304.114 206.242 L 304.114 206.242 L 303.566 204.878 L 303.566 204.878 Q 304.437 204.406 305.473 204.137 L 305.473 204.137 L 305.473 204.137 Q 306.51 203.868 307.552 203.868 L 307.552 203.868 L 307.552 203.868 Q 309.657 203.868 310.672 204.803 L 310.672 204.803 L 310.672 204.803 Q 311.687 205.738 311.687 207.8 L 311.687 207.8 L 311.687 215.835 L 311.687 215.835 Z  M 306.338 214.578 L 306.338 214.578 L 306.338 214.578 Q 308.003 214.578 308.954 213.665 L 308.954 213.665 L 308.954 213.665 Q 309.904 212.752 309.904 211.109 L 309.904 211.109 L 309.904 210.045 L 308.121 210.12 L 308.121 210.12 Q 305.994 210.196 305.054 210.781 L 305.054 210.781 L 305.054 210.781 Q 304.114 211.367 304.114 212.602 L 304.114 212.602 L 304.114 212.602 Q 304.114 213.569 304.7 214.074 L 304.7 214.074 L 304.7 214.074 Q 305.285 214.578 306.338 214.578 Z  M 320.023 215.835 L 317.939 215.835 L 313.471 204.062 L 315.383 204.062 L 317.918 211.044 L 317.918 211.044 Q 318.777 213.493 318.928 214.224 L 318.928 214.224 L 319.014 214.224 L 319.014 214.224 Q 319.132 213.655 319.76 211.866 L 319.76 211.866 L 319.76 211.866 Q 320.389 210.077 322.58 204.062 L 322.58 204.062 L 324.492 204.062 L 320.023 215.835 L 320.023 215.835 Z  M 334.944 215.835 L 333.623 215.835 L 333.269 214.159 L 333.183 214.159 L 333.183 214.159 Q 332.302 215.266 331.426 215.658 L 331.426 215.658 L 331.426 215.658 Q 330.551 216.05 329.24 216.05 L 329.24 216.05 L 329.24 216.05 Q 327.489 216.05 326.496 215.148 L 326.496 215.148 L 326.496 215.148 Q 325.502 214.245 325.502 212.58 L 325.502 212.58 L 325.502 212.58 Q 325.502 209.014 331.206 208.842 L 331.206 208.842 L 333.204 208.778 L 333.204 208.047 L 333.204 208.047 Q 333.204 206.661 332.608 206.001 L 332.608 206.001 L 332.608 206.001 Q 332.012 205.34 330.701 205.34 L 330.701 205.34 L 330.701 205.34 Q 329.229 205.34 327.371 206.242 L 327.371 206.242 L 326.823 204.878 L 326.823 204.878 Q 327.693 204.406 328.73 204.137 L 328.73 204.137 L 328.73 204.137 Q 329.767 203.868 330.809 203.868 L 330.809 203.868 L 330.809 203.868 Q 332.914 203.868 333.929 204.803 L 333.929 204.803 L 333.929 204.803 Q 334.944 205.738 334.944 207.8 L 334.944 207.8 L 334.944 215.835 L 334.944 215.835 Z  M 329.595 214.578 L 329.595 214.578 L 329.595 214.578 Q 331.26 214.578 332.21 213.665 L 332.21 213.665 L 332.21 213.665 Q 333.161 212.752 333.161 211.109 L 333.161 211.109 L 333.161 210.045 L 331.378 210.12 L 331.378 210.12 Q 329.251 210.196 328.311 210.781 L 328.311 210.781 L 328.311 210.781 Q 327.371 211.367 327.371 212.602 L 327.371 212.602 L 327.371 212.602 Q 327.371 213.569 327.957 214.074 L 327.957 214.074 L 327.957 214.074 Q 328.542 214.578 329.595 214.578 Z  M 342.421 214.578 L 342.421 214.578 L 342.421 214.578 Q 342.894 214.578 343.334 214.509 L 343.334 214.509 L 343.334 214.509 Q 343.774 214.439 344.032 214.364 L 344.032 214.364 L 344.032 215.728 L 344.032 215.728 Q 343.742 215.867 343.178 215.959 L 343.178 215.959 L 343.178 215.959 Q 342.614 216.05 342.163 216.05 L 342.163 216.05 L 342.163 216.05 Q 338.747 216.05 338.747 212.451 L 338.747 212.451 L 338.747 205.448 L 337.061 205.448 L 337.061 204.588 L 338.747 203.847 L 339.499 201.333 L 340.53 201.333 L 340.53 204.062 L 343.946 204.062 L 343.946 205.448 L 340.53 205.448 L 340.53 212.376 L 340.53 212.376 Q 340.53 213.44 341.035 214.009 L 341.035 214.009 L 341.035 214.009 Q 341.54 214.578 342.421 214.578 Z  M 354.946 215.835 L 353.625 215.835 L 353.271 214.159 L 353.185 214.159 L 353.185 214.159 Q 352.304 215.266 351.428 215.658 L 351.428 215.658 L 351.428 215.658 Q 350.553 216.05 349.242 216.05 L 349.242 216.05 L 349.242 216.05 Q 347.491 216.05 346.498 215.148 L 346.498 215.148 L 346.498 215.148 Q 345.504 214.245 345.504 212.58 L 345.504 212.58 L 345.504 212.58 Q 345.504 209.014 351.208 208.842 L 351.208 208.842 L 353.206 208.778 L 353.206 208.047 L 353.206 208.047 Q 353.206 206.661 352.61 206.001 L 352.61 206.001 L 352.61 206.001 Q 352.014 205.34 350.703 205.34 L 350.703 205.34 L 350.703 205.34 Q 349.231 205.34 347.373 206.242 L 347.373 206.242 L 346.825 204.878 L 346.825 204.878 Q 347.695 204.406 348.732 204.137 L 348.732 204.137 L 348.732 204.137 Q 349.769 203.868 350.811 203.868 L 350.811 203.868 L 350.811 203.868 Q 352.916 203.868 353.931 204.803 L 353.931 204.803 L 353.931 204.803 Q 354.946 205.738 354.946 207.8 L 354.946 207.8 L 354.946 215.835 L 354.946 215.835 Z  M 349.597 214.578 L 349.597 214.578 L 349.597 214.578 Q 351.262 214.578 352.212 213.665 L 352.212 213.665 L 352.212 213.665 Q 353.163 212.752 353.163 211.109 L 353.163 211.109 L 353.163 210.045 L 351.38 210.12 L 351.38 210.12 Q 349.253 210.196 348.313 210.781 L 348.313 210.781 L 348.313 210.781 Q 347.373 211.367 347.373 212.602 L 347.373 212.602 L 347.373 212.602 Q 347.373 213.569 347.958 214.074 L 347.958 214.074 L 347.958 214.074 Q 348.544 214.578 349.597 214.578 Z  M 363.991 203.847 L 363.991 203.847 L 363.991 203.847 Q 364.775 203.847 365.398 203.976 L 365.398 203.976 L 365.151 205.63 L 365.151 205.63 Q 364.421 205.469 363.862 205.469 L 363.862 205.469 L 363.862 205.469 Q 362.434 205.469 361.418 206.629 L 361.418 206.629 L 361.418 206.629 Q 360.403 207.789 360.403 209.519 L 360.403 209.519 L 360.403 215.835 L 358.62 215.835 L 358.62 204.062 L 360.092 204.062 L 360.296 206.242 L 360.382 206.242 L 360.382 206.242 Q 361.037 205.093 361.961 204.47 L 361.961 204.47 L 361.961 204.47 Q 362.885 203.847 363.991 203.847 Z  M 254.485 209.121 L 254.485 215.835 L 252.659 215.835 L 252.659 200.13 L 261.414 200.13 L 261.414 201.752 L 254.485 201.752 L 254.485 207.499 L 260.995 207.499 L 260.995 209.121 L 254.485 209.121 L 254.485 209.121 Z  M 269.116 203.847 L 269.116 203.847 L 269.116 203.847 Q 269.9 203.847 270.523 203.976 L 270.523 203.976 L 270.276 205.63 L 270.276 205.63 Q 269.546 205.469 268.987 205.469 L 268.987 205.469 L 268.987 205.469 Q 267.559 205.469 266.543 206.629 L 266.543 206.629 L 266.543 206.629 Q 265.528 207.789 265.528 209.519 L 265.528 209.519 L 265.528 215.835 L 263.745 215.835 L 263.745 204.062 L 265.217 204.062 L 265.421 206.242 L 265.507 206.242 L 265.507 206.242 Q 266.162 205.093 267.086 204.47 L 267.086 204.47 L 267.086 204.47 Q 268.01 203.847 269.116 203.847 Z  M 277.699 216.05 L 277.699 216.05 L 277.699 216.05 Q 275.089 216.05 273.58 214.46 L 273.58 214.46 L 273.58 214.46 Q 272.07 212.87 272.07 210.045 L 272.07 210.045 L 272.07 210.045 Q 272.07 207.199 273.472 205.523 L 273.472 205.523 L 273.472 205.523 Q 274.874 203.847 277.237 203.847 L 277.237 203.847 L 277.237 203.847 Q 279.45 203.847 280.739 205.303 L 280.739 205.303 L 280.739 205.303 Q 282.028 206.758 282.028 209.143 L 282.028 209.143 L 282.028 210.271 L 273.918 210.271 L 273.918 210.271 Q 273.972 212.344 274.965 213.418 L 274.965 213.418 L 274.965 213.418 Q 275.959 214.492 277.764 214.492 L 277.764 214.492 L 277.764 214.492 Q 279.665 214.492 281.523 213.698 L 281.523 213.698 L 281.523 215.287 L 281.523 215.287 Q 280.578 215.696 279.735 215.873 L 279.735 215.873 L 279.735 215.873 Q 278.892 216.05 277.699 216.05 Z  M 277.216 205.34 L 277.216 205.34 L 277.216 205.34 Q 275.798 205.34 274.955 206.264 L 274.955 206.264 L 274.955 206.264 Q 274.111 207.188 273.961 208.821 L 273.961 208.821 L 280.116 208.821 L 280.116 208.821 Q 280.116 207.134 279.364 206.237 L 279.364 206.237 L 279.364 206.237 Q 278.612 205.34 277.216 205.34 Z  M 290.042 216.05 L 290.042 216.05 L 290.042 216.05 Q 287.432 216.05 285.922 214.46 L 285.922 214.46 L 285.922 214.46 Q 284.413 212.87 284.413 210.045 L 284.413 210.045 L 284.413 210.045 Q 284.413 207.199 285.815 205.523 L 285.815 205.523 L 285.815 205.523 Q 287.217 203.847 289.58 203.847 L 289.58 203.847 L 289.58 203.847 Q 291.793 203.847 293.082 205.303 L 293.082 205.303 L 293.082 205.303 Q 294.371 206.758 294.371 209.143 L 294.371 209.143 L 294.371 210.271 L 286.261 210.271 L 286.261 210.271 Q 286.314 212.344 287.308 213.418 L 287.308 213.418 L 287.308 213.418 Q 288.302 214.492 290.106 214.492 L 290.106 214.492 L 290.106 214.492 Q 292.008 214.492 293.866 213.698 L 293.866 213.698 L 293.866 215.287 L 293.866 215.287 Q 292.921 215.696 292.078 215.873 L 292.078 215.873 L 292.078 215.873 Q 291.234 216.05 290.042 216.05 Z  M 289.559 205.34 L 289.559 205.34 L 289.559 205.34 Q 288.141 205.34 287.297 206.264 L 287.297 206.264 L 287.297 206.264 Q 286.454 207.188 286.304 208.821 L 286.304 208.821 L 292.459 208.821 L 292.459 208.821 Q 292.459 207.134 291.707 206.237 L 291.707 206.237 L 291.707 206.237 Q 290.955 205.34 289.559 205.34 Z " fill-rule="evenodd" fill="rgb(255,255,255)"/></g></svg>