<?xml version="1.0" standalone="no"?><!-- Generator: Gravit.io --><svg xmlns="http://www.w3.org/2000/svg" xmlns:xlink="http://www.w3.org/1999/xlink" style="isolation:isolate" viewBox="0 0 41.801 39.135" width="41.801" height="39.135"><defs><clipPath id="_clipPath_g9TgZOOsTTQ7qIc1M17l8CICpzV1Y9d6"><rect width="41.801" height="39.135"/></clipPath></defs><g clip-path="url(#_clipPath_g9TgZOOsTTQ7qIc1M17l8CICpzV1Y9d6)"><path d=" M 41.778 11.501 C 41.728 11.286 41.607 11.094 41.436 10.955 L 29.992 0.648 L 29.237 0 L 28.556 0.726 L 18.281 12.199 C 17.998 12.457 17.883 12.85 17.989 13.22 C 18.094 13.586 18.402 13.863 18.778 13.929 C 19.155 13.994 19.536 13.838 19.761 13.528 L 28.443 3.862 L 29.276 19.37 C 29.598 25.369 28.307 29.679 26.008 32.533 C 23.709 35.386 20.366 36.873 16.208 37.096 C 7.872 37.544 1.553 34.034 1.553 34.034 C 1.24 33.827 0.838 33.812 0.511 33.997 C 0.18 34.182 -0.015 34.533 0.001 34.907 C 0.017 35.282 0.242 35.618 0.583 35.776 C 0.583 35.776 7.363 39.574 16.315 39.093 C 20.902 38.847 24.89 37.131 27.578 33.794 C 30.267 30.459 31.613 25.602 31.273 19.263 L 30.44 3.754 L 40.107 12.435 C 40.424 12.742 40.905 12.803 41.288 12.587 C 41.674 12.373 41.873 11.931 41.778 11.501 Z " fill="rgb(255,255,255)"/></g></svg>