<?xml version="1.0" encoding="UTF-8" standalone="no"?><!-- Generator: Gravit.io --><svg xmlns="http://www.w3.org/2000/svg" xmlns:xlink="http://www.w3.org/1999/xlink" style="isolation:isolate" viewBox="0 0 898 97" width="898pt" height="97pt"><defs><clipPath id="_clipPath_eFe5HlVYOodASqZm5tFAElMxCPc0EdTZ"><rect width="898" height="97"/></clipPath></defs><g clip-path="url(#_clipPath_eFe5HlVYOodASqZm5tFAElMxCPc0EdTZ)"><linearGradient id="_lgradient_1" x1="0" y1="0.5" x2="1" y2="0.5" gradientTransform="matrix(898,0,0,97,0,0)" gradientUnits="userSpaceOnUse"><stop offset="0%" stop-opacity="1" style="stop-color:rgb(79,172,254)"/><stop offset="100%" stop-opacity="1" style="stop-color:rgb(0,242,254)"/></linearGradient><rect x="0" y="0" width="898" height="97" transform="matrix(1,0,0,1,0,0)" fill="url(#_lgradient_1)"/><g><path d=" M 218.128 62.523 L 218.128 62.523 L 218.128 62.523 Q 218.128 60.382 216.366 59.262 L 216.366 59.262 L 216.366 59.262 Q 214.603 58.142 210.519 57.285 L 210.519 57.285 L 210.519 57.285 Q 206.435 56.429 203.701 55.112 L 203.701 55.112 L 203.701 55.112 Q 197.706 52.213 197.706 46.712 L 197.706 46.712 L 197.706 46.712 Q 197.706 42.101 201.593 39.005 L 201.593 39.005 L 201.593 39.005 Q 205.48 35.909 211.474 35.909 L 211.474 35.909 L 211.474 35.909 Q 217.864 35.909 221.8 39.071 L 221.8 39.071 L 221.8 39.071 Q 225.736 42.233 225.736 47.272 L 225.736 47.272 L 217.733 47.272 L 217.733 47.272 Q 217.733 44.967 216.02 43.435 L 216.02 43.435 L 216.02 43.435 Q 214.307 41.903 211.474 41.903 L 211.474 41.903 L 211.474 41.903 Q 208.839 41.903 207.176 43.122 L 207.176 43.122 L 207.176 43.122 Q 205.513 44.341 205.513 46.383 L 205.513 46.383 L 205.513 46.383 Q 205.513 48.227 207.061 49.249 L 207.061 49.249 L 207.061 49.249 Q 208.609 50.27 213.319 51.307 L 213.319 51.307 L 213.319 51.307 Q 218.029 52.345 220.713 53.778 L 220.713 53.778 L 220.713 53.778 Q 223.398 55.21 224.699 57.22 L 224.699 57.22 L 224.699 57.22 Q 226 59.229 226 62.094 L 226 62.094 L 226 62.094 Q 226 66.903 222.014 69.884 L 222.014 69.884 L 222.014 69.884 Q 218.029 72.865 211.573 72.865 L 211.573 72.865 L 211.573 72.865 Q 207.192 72.865 203.767 71.284 L 203.767 71.284 L 203.767 71.284 Q 200.341 69.703 198.431 66.936 L 198.431 66.936 L 198.431 66.936 Q 196.52 64.169 196.52 60.975 L 196.52 60.975 L 204.294 60.975 L 204.294 60.975 Q 204.459 63.807 206.435 65.339 L 206.435 65.339 L 206.435 65.339 Q 208.411 66.87 211.672 66.87 L 211.672 66.87 L 211.672 66.87 Q 214.834 66.87 216.481 65.668 L 216.481 65.668 L 216.481 65.668 Q 218.128 64.466 218.128 62.523 Z  M 195.04 36.37 L 195.007 43.88 L 195.007 43.88 Q 193.426 43.616 191.746 43.616 L 191.746 43.616 L 191.746 43.616 Q 186.246 43.616 184.335 47.832 L 184.335 47.832 L 184.335 72.206 L 176.331 72.206 L 176.331 36.567 L 183.973 36.567 L 184.17 40.553 L 184.17 40.553 Q 187.069 35.909 192.207 35.909 L 192.207 35.909 L 192.207 35.909 Q 193.92 35.909 195.04 36.37 L 195.04 36.37 Z  M 173.14 72.206 L 164.971 72.206 L 164.971 72.206 Q 164.444 71.185 164.049 68.88 L 164.049 68.88 L 164.049 68.88 Q 160.228 72.865 154.694 72.865 L 154.694 72.865 L 154.694 72.865 Q 149.325 72.865 145.933 69.802 L 145.933 69.802 L 145.933 69.802 Q 142.54 66.739 142.54 62.226 L 142.54 62.226 L 142.54 62.226 Q 142.54 56.528 146.773 53.481 L 146.773 53.481 L 146.773 53.481 Q 151.005 50.434 158.878 50.434 L 158.878 50.434 L 163.785 50.434 L 163.785 48.096 L 163.785 48.096 Q 163.785 45.329 162.237 43.666 L 162.237 43.666 L 162.237 43.666 Q 160.689 42.002 157.527 42.002 L 157.527 42.002 L 157.527 42.002 Q 154.793 42.002 153.047 43.369 L 153.047 43.369 L 153.047 43.369 Q 151.302 44.736 151.302 46.844 L 151.302 46.844 L 143.298 46.844 L 143.298 46.844 Q 143.298 43.913 145.241 41.36 L 145.241 41.36 L 145.241 41.36 Q 147.185 38.807 150.528 37.358 L 150.528 37.358 L 150.528 37.358 Q 153.871 35.909 157.988 35.909 L 157.988 35.909 L 157.988 35.909 Q 164.246 35.909 167.968 39.054 L 167.968 39.054 L 167.968 39.054 Q 171.69 42.2 171.789 47.898 L 171.789 47.898 L 171.789 63.972 L 171.789 63.972 Q 171.789 68.781 173.14 71.646 L 173.14 71.646 L 173.14 72.206 Z  M 156.177 66.442 L 156.177 66.442 L 156.177 66.442 Q 158.548 66.442 160.64 65.289 L 160.64 65.289 L 160.64 65.289 Q 162.731 64.137 163.785 62.193 L 163.785 62.193 L 163.785 55.474 L 159.47 55.474 L 159.47 55.474 Q 155.024 55.474 152.784 57.022 L 152.784 57.022 L 152.784 57.022 Q 150.544 58.57 150.544 61.403 L 150.544 61.403 L 150.544 61.403 Q 150.544 63.708 152.076 65.075 L 152.076 65.075 L 152.076 65.075 Q 153.607 66.442 156.177 66.442 Z  M 118.038 72.206 L 109.869 72.206 L 109.869 72.206 Q 109.342 71.185 108.947 68.88 L 108.947 68.88 L 108.947 68.88 Q 105.126 72.865 99.593 72.865 L 99.593 72.865 L 99.593 72.865 Q 94.224 72.865 90.831 69.802 L 90.831 69.802 L 90.831 69.802 Q 87.438 66.739 87.438 62.226 L 87.438 62.226 L 87.438 62.226 Q 87.438 56.528 91.671 53.481 L 91.671 53.481 L 91.671 53.481 Q 95.903 50.434 103.776 50.434 L 103.776 50.434 L 108.683 50.434 L 108.683 48.096 L 108.683 48.096 Q 108.683 45.329 107.135 43.666 L 107.135 43.666 L 107.135 43.666 Q 105.587 42.002 102.425 42.002 L 102.425 42.002 L 102.425 42.002 Q 99.691 42.002 97.946 43.369 L 97.946 43.369 L 97.946 43.369 Q 96.2 44.736 96.2 46.844 L 96.2 46.844 L 88.196 46.844 L 88.196 46.844 Q 88.196 43.913 90.139 41.36 L 90.139 41.36 L 90.139 41.36 Q 92.083 38.807 95.426 37.358 L 95.426 37.358 L 95.426 37.358 Q 98.769 35.909 102.886 35.909 L 102.886 35.909 L 102.886 35.909 Q 109.145 35.909 112.867 39.054 L 112.867 39.054 L 112.867 39.054 Q 116.589 42.2 116.687 47.898 L 116.687 47.898 L 116.687 63.972 L 116.687 63.972 Q 116.687 68.781 118.038 71.646 L 118.038 71.646 L 118.038 72.206 Z  M 101.075 66.442 L 101.075 66.442 L 101.075 66.442 Q 103.446 66.442 105.538 65.289 L 105.538 65.289 L 105.538 65.289 Q 107.629 64.137 108.683 62.193 L 108.683 62.193 L 108.683 55.474 L 104.369 55.474 L 104.369 55.474 Q 99.922 55.474 97.682 57.022 L 97.682 57.022 L 97.682 57.022 Q 95.442 58.57 95.442 61.403 L 95.442 61.403 L 95.442 61.403 Q 95.442 63.708 96.974 65.075 L 96.974 65.075 L 96.974 65.075 Q 98.506 66.442 101.075 66.442 Z  M 125.184 27.905 L 133.188 27.905 L 133.188 36.567 L 139.479 36.567 L 139.479 42.496 L 133.188 42.496 L 133.188 62.391 L 133.188 62.391 Q 133.188 64.433 133.995 65.339 L 133.995 65.339 L 133.995 65.339 Q 134.802 66.245 136.877 66.245 L 136.877 66.245 L 136.877 66.245 Q 138.26 66.245 139.676 65.915 L 139.676 65.915 L 139.676 72.108 L 139.676 72.108 Q 136.943 72.865 134.406 72.865 L 134.406 72.865 L 134.406 72.865 Q 125.184 72.865 125.184 62.687 L 125.184 62.687 L 125.184 42.496 L 119.321 42.496 L 119.321 36.567 L 125.184 36.567 L 125.184 27.905 Z  M 63.957 36.567 L 71.599 62.061 L 79.142 36.567 L 87.409 36.567 L 75.057 72.206 L 68.107 72.206 L 55.657 36.567 L 63.957 36.567 Z  M 55.046 72.206 L 51.126 61.04 L 32.549 61.04 L 28.663 72.206 L 20 72.206 L 38.116 24.249 L 45.593 24.249 L 63.742 72.206 L 55.046 72.206 Z  M 41.838 34.426 L 34.888 54.321 L 48.788 54.321 L 41.838 34.426 Z " fill-rule="evenodd" fill="rgb(255,255,255)"/><g opacity="0.6"><path d=" M 58.067 33.858 L 55.412 33.858 L 55.412 24.267 L 58.12 24.267 L 58.12 24.267 Q 59.372 24.267 60.333 24.82 L 60.333 24.82 L 60.333 24.82 Q 61.295 25.373 61.819 26.394 L 61.819 26.394 L 61.819 26.394 Q 62.343 27.415 62.349 28.74 L 62.349 28.74 L 62.349 29.352 L 62.349 29.352 Q 62.349 30.709 61.825 31.73 L 61.825 31.73 L 61.825 31.73 Q 61.302 32.751 60.33 33.298 L 60.33 33.298 L 60.33 33.298 Q 59.358 33.845 58.067 33.858 L 58.067 33.858 Z  M 58.153 25.307 L 56.677 25.307 L 56.677 32.824 L 58.008 32.824 L 58.008 32.824 Q 59.47 32.824 60.284 31.915 L 60.284 31.915 L 60.284 31.915 Q 61.098 31.006 61.098 29.326 L 61.098 29.326 L 61.098 28.766 L 61.098 28.766 Q 61.098 27.132 60.33 26.226 L 60.33 26.226 L 60.33 26.226 Q 59.563 25.321 58.153 25.307 L 58.153 25.307 Z  M 65.393 26.73 L 65.393 33.858 L 64.174 33.858 L 64.174 26.73 L 65.393 26.73 Z  M 64.075 24.84 L 64.075 24.84 L 64.075 24.84 Q 64.075 24.543 64.256 24.339 L 64.256 24.339 L 64.256 24.339 Q 64.437 24.135 64.793 24.135 L 64.793 24.135 L 64.793 24.135 Q 65.149 24.135 65.333 24.339 L 65.333 24.339 L 65.333 24.339 Q 65.518 24.543 65.518 24.84 L 65.518 24.84 L 65.518 24.84 Q 65.518 25.136 65.333 25.334 L 65.333 25.334 L 65.333 25.334 Q 65.149 25.531 64.793 25.531 L 64.793 25.531 L 64.793 25.531 Q 64.437 25.531 64.256 25.334 L 64.256 25.334 L 64.256 25.334 Q 64.075 25.136 64.075 24.84 Z  M 70.202 32.995 L 70.202 32.995 L 70.202 32.995 Q 70.854 32.995 71.341 32.6 L 71.341 32.6 L 71.341 32.6 Q 71.829 32.205 71.881 31.612 L 71.881 31.612 L 73.034 31.612 L 73.034 31.612 Q 73.001 32.224 72.613 32.778 L 72.613 32.778 L 72.613 32.778 Q 72.224 33.331 71.575 33.661 L 71.575 33.661 L 71.575 33.661 Q 70.926 33.99 70.202 33.99 L 70.202 33.99 L 70.202 33.99 Q 68.746 33.99 67.886 33.018 L 67.886 33.018 L 67.886 33.018 Q 67.026 32.047 67.026 30.36 L 67.026 30.36 L 67.026 30.156 L 67.026 30.156 Q 67.026 29.115 67.408 28.305 L 67.408 28.305 L 67.408 28.305 Q 67.791 27.495 68.505 27.047 L 68.505 27.047 L 68.505 27.047 Q 69.22 26.599 70.195 26.599 L 70.195 26.599 L 70.195 26.599 Q 71.394 26.599 72.188 27.317 L 72.188 27.317 L 72.188 27.317 Q 72.982 28.035 73.034 29.181 L 73.034 29.181 L 71.881 29.181 L 71.881 29.181 Q 71.829 28.489 71.358 28.045 L 71.358 28.045 L 71.358 28.045 Q 70.887 27.6 70.195 27.6 L 70.195 27.6 L 70.195 27.6 Q 69.266 27.6 68.756 28.269 L 68.756 28.269 L 68.756 28.269 Q 68.245 28.937 68.245 30.202 L 68.245 30.202 L 68.245 30.433 L 68.245 30.433 Q 68.245 31.664 68.752 32.33 L 68.752 32.33 L 68.752 32.33 Q 69.26 32.995 70.202 32.995 Z  M 77.362 33.99 L 77.362 33.99 L 77.362 33.99 Q 75.913 33.99 75.004 33.038 L 75.004 33.038 L 75.004 33.038 Q 74.095 32.086 74.095 30.492 L 74.095 30.492 L 74.095 30.268 L 74.095 30.268 Q 74.095 29.207 74.5 28.374 L 74.5 28.374 L 74.5 28.374 Q 74.905 27.541 75.633 27.07 L 75.633 27.07 L 75.633 27.07 Q 76.361 26.599 77.211 26.599 L 77.211 26.599 L 77.211 26.599 Q 78.601 26.599 79.372 27.514 L 79.372 27.514 L 79.372 27.514 Q 80.142 28.43 80.142 30.136 L 80.142 30.136 L 80.142 30.643 L 75.314 30.643 L 75.314 30.643 Q 75.34 31.697 75.93 32.346 L 75.93 32.346 L 75.93 32.346 Q 76.519 32.995 77.428 32.995 L 77.428 32.995 L 77.428 32.995 Q 78.074 32.995 78.522 32.732 L 78.522 32.732 L 78.522 32.732 Q 78.97 32.468 79.306 32.033 L 79.306 32.033 L 80.05 32.613 L 80.05 32.613 Q 79.154 33.99 77.362 33.99 Z  M 77.211 27.6 L 77.211 27.6 L 77.211 27.6 Q 76.473 27.6 75.972 28.137 L 75.972 28.137 L 75.972 28.137 Q 75.472 28.674 75.353 29.642 L 75.353 29.642 L 78.924 29.642 L 78.924 29.55 L 78.924 29.55 Q 78.871 28.621 78.423 28.11 L 78.423 28.11 L 78.423 28.11 Q 77.975 27.6 77.211 27.6 Z  M 85.07 33.858 L 81.743 33.858 L 81.743 24.267 L 84.879 24.267 L 84.879 24.267 Q 86.44 24.267 87.227 24.912 L 87.227 24.912 L 87.227 24.912 Q 88.014 25.558 88.014 26.823 L 88.014 26.823 L 88.014 26.823 Q 88.014 27.495 87.632 28.012 L 87.632 28.012 L 87.632 28.012 Q 87.25 28.529 86.592 28.812 L 86.592 28.812 L 86.592 28.812 Q 87.369 29.029 87.82 29.639 L 87.82 29.639 L 87.82 29.639 Q 88.271 30.248 88.271 31.091 L 88.271 31.091 L 88.271 31.091 Q 88.271 32.383 87.435 33.12 L 87.435 33.12 L 87.435 33.12 Q 86.598 33.858 85.07 33.858 L 85.07 33.858 Z  M 85.116 29.372 L 83.008 29.372 L 83.008 32.824 L 85.096 32.824 L 85.096 32.824 Q 85.979 32.824 86.489 32.366 L 86.489 32.366 L 86.489 32.366 Q 87 31.908 87 31.105 L 87 31.105 L 87 31.105 Q 87 29.372 85.116 29.372 L 85.116 29.372 Z  M 83.008 25.307 L 83.008 28.358 L 84.918 28.358 L 84.918 28.358 Q 85.748 28.358 86.246 27.942 L 86.246 27.942 L 86.246 27.942 Q 86.743 27.527 86.743 26.816 L 86.743 26.816 L 86.743 26.816 Q 86.743 26.025 86.282 25.666 L 86.282 25.666 L 86.282 25.666 Q 85.821 25.307 84.879 25.307 L 84.879 25.307 L 83.008 25.307 Z  M 92.909 33.99 L 92.909 33.99 L 92.909 33.99 Q 91.46 33.99 90.551 33.038 L 90.551 33.038 L 90.551 33.038 Q 89.642 32.086 89.642 30.492 L 89.642 30.492 L 89.642 30.268 L 89.642 30.268 Q 89.642 29.207 90.047 28.374 L 90.047 28.374 L 90.047 28.374 Q 90.452 27.541 91.18 27.07 L 91.18 27.07 L 91.18 27.07 Q 91.908 26.599 92.758 26.599 L 92.758 26.599 L 92.758 26.599 Q 94.148 26.599 94.918 27.514 L 94.918 27.514 L 94.918 27.514 Q 95.689 28.43 95.689 30.136 L 95.689 30.136 L 95.689 30.643 L 90.86 30.643 L 90.86 30.643 Q 90.887 31.697 91.476 32.346 L 91.476 32.346 L 91.476 32.346 Q 92.066 32.995 92.975 32.995 L 92.975 32.995 L 92.975 32.995 Q 93.621 32.995 94.069 32.732 L 94.069 32.732 L 94.069 32.732 Q 94.516 32.468 94.852 32.033 L 94.852 32.033 L 95.597 32.613 L 95.597 32.613 Q 94.701 33.99 92.909 33.99 Z  M 92.758 27.6 L 92.758 27.6 L 92.758 27.6 Q 92.02 27.6 91.519 28.137 L 91.519 28.137 L 91.519 28.137 Q 91.018 28.674 90.9 29.642 L 90.9 29.642 L 94.47 29.642 L 94.47 29.55 L 94.47 29.55 Q 94.418 28.621 93.97 28.11 L 93.97 28.11 L 93.97 28.11 Q 93.522 27.6 92.758 27.6 Z  M 102.777 33.858 L 101.499 33.858 L 101.499 33.858 Q 101.394 33.647 101.328 33.107 L 101.328 33.107 L 101.328 33.107 Q 100.478 33.99 99.299 33.99 L 99.299 33.99 L 99.299 33.99 Q 98.245 33.99 97.57 33.394 L 97.57 33.394 L 97.57 33.394 Q 96.895 32.798 96.895 31.882 L 96.895 31.882 L 96.895 31.882 Q 96.895 30.769 97.741 30.153 L 97.741 30.153 L 97.741 30.153 Q 98.588 29.537 100.123 29.537 L 100.123 29.537 L 101.308 29.537 L 101.308 28.977 L 101.308 28.977 Q 101.308 28.338 100.926 27.959 L 100.926 27.959 L 100.926 27.959 Q 100.544 27.58 99.8 27.58 L 99.8 27.58 L 99.8 27.58 Q 99.148 27.58 98.706 27.91 L 98.706 27.91 L 98.706 27.91 Q 98.265 28.239 98.265 28.707 L 98.265 28.707 L 97.04 28.707 L 97.04 28.707 Q 97.04 28.173 97.418 27.676 L 97.418 27.676 L 97.418 27.676 Q 97.797 27.178 98.446 26.888 L 98.446 26.888 L 98.446 26.888 Q 99.095 26.599 99.872 26.599 L 99.872 26.599 L 99.872 26.599 Q 101.104 26.599 101.802 27.215 L 101.802 27.215 L 101.802 27.215 Q 102.501 27.831 102.527 28.911 L 102.527 28.911 L 102.527 32.192 L 102.527 32.192 Q 102.527 33.173 102.777 33.753 L 102.777 33.753 L 102.777 33.858 Z  M 99.477 32.929 L 99.477 32.929 L 99.477 32.929 Q 100.05 32.929 100.564 32.633 L 100.564 32.633 L 100.564 32.633 Q 101.078 32.336 101.308 31.862 L 101.308 31.862 L 101.308 30.4 L 100.353 30.4 L 100.353 30.4 Q 98.113 30.4 98.113 31.711 L 98.113 31.711 L 98.113 31.711 Q 98.113 32.284 98.495 32.607 L 98.495 32.607 L 98.495 32.607 Q 98.877 32.929 99.477 32.929 Z  M 107.883 26.691 L 107.883 27.824 L 107.883 27.824 Q 107.606 27.778 107.283 27.778 L 107.283 27.778 L 107.283 27.778 Q 106.084 27.778 105.656 28.799 L 105.656 28.799 L 105.656 33.858 L 104.437 33.858 L 104.437 26.73 L 105.623 26.73 L 105.643 27.554 L 105.643 27.554 Q 106.242 26.599 107.343 26.599 L 107.343 26.599 L 107.343 26.599 Q 107.698 26.599 107.883 26.691 L 107.883 26.691 Z " fill-rule="evenodd" fill="rgb(255,255,255)"/></g></g><g opacity="0.95"><path d=" M 785.906 62.547 L 785.906 62.547 L 785.906 62.547 Q 782.047 61.438 780.289 59.82 L 780.289 59.82 L 780.289 59.82 Q 778.531 58.203 778.531 55.828 L 778.531 55.828 L 778.531 55.828 Q 778.531 53.141 780.68 51.383 L 780.68 51.383 L 780.68 51.383 Q 782.828 49.625 786.266 49.625 L 786.266 49.625 L 786.266 49.625 Q 788.609 49.625 790.445 50.531 L 790.445 50.531 L 790.445 50.531 Q 792.281 51.438 793.289 53.031 L 793.289 53.031 L 793.289 53.031 Q 794.297 54.625 794.297 56.516 L 794.297 56.516 L 791.281 56.516 L 791.281 56.516 Q 791.281 54.453 789.969 53.273 L 789.969 53.273 L 789.969 53.273 Q 788.656 52.094 786.266 52.094 L 786.266 52.094 L 786.266 52.094 Q 784.047 52.094 782.805 53.07 L 782.805 53.07 L 782.805 53.07 Q 781.563 54.047 781.563 55.781 L 781.563 55.781 L 781.563 55.781 Q 781.563 57.172 782.742 58.133 L 782.742 58.133 L 782.742 58.133 Q 783.922 59.094 786.758 59.891 L 786.758 59.891 L 786.758 59.891 Q 789.594 60.688 791.195 61.648 L 791.195 61.648 L 791.195 61.648 Q 792.797 62.609 793.57 63.891 L 793.57 63.891 L 793.57 63.891 Q 794.344 65.172 794.344 66.906 L 794.344 66.906 L 794.344 66.906 Q 794.344 69.672 792.188 71.336 L 792.188 71.336 L 792.188 71.336 Q 790.031 73 786.422 73 L 786.422 73 L 786.422 73 Q 784.078 73 782.047 72.102 L 782.047 72.102 L 782.047 72.102 Q 780.016 71.203 778.914 69.641 L 778.914 69.641 L 778.914 69.641 Q 777.813 68.078 777.813 66.094 L 777.813 66.094 L 780.828 66.094 L 780.828 66.094 Q 780.828 68.156 782.352 69.352 L 782.352 69.352 L 782.352 69.352 Q 783.875 70.547 786.422 70.547 L 786.422 70.547 L 786.422 70.547 Q 788.797 70.547 790.063 69.578 L 790.063 69.578 L 790.063 69.578 Q 791.328 68.609 791.328 66.938 L 791.328 66.938 L 791.328 66.938 Q 791.328 65.266 790.156 64.352 L 790.156 64.352 L 790.156 64.352 Q 788.984 63.438 785.906 62.547 Z  M 812.016 64.156 L 812.016 64.422 L 812.016 64.422 Q 812.016 68.281 810.25 70.641 L 810.25 70.641 L 810.25 70.641 Q 808.484 73 805.469 73 L 805.469 73 L 805.469 73 Q 802.391 73 800.625 71.047 L 800.625 71.047 L 800.625 79.188 L 797.734 79.188 L 797.734 55.781 L 800.375 55.781 L 800.516 57.656 L 800.516 57.656 Q 802.281 55.469 805.422 55.469 L 805.422 55.469 L 805.422 55.469 Q 808.469 55.469 810.242 57.766 L 810.242 57.766 L 810.242 57.766 Q 812.016 60.063 812.016 64.156 L 812.016 64.156 L 812.016 64.156 Z  M 809.125 64.094 L 809.125 64.094 L 809.125 64.094 Q 809.125 61.234 807.906 59.578 L 807.906 59.578 L 807.906 59.578 Q 806.688 57.922 804.563 57.922 L 804.563 57.922 L 804.563 57.922 Q 801.938 57.922 800.625 60.25 L 800.625 60.25 L 800.625 68.328 L 800.625 68.328 Q 801.922 70.641 804.594 70.641 L 804.594 70.641 L 804.594 70.641 Q 806.672 70.641 807.898 68.992 L 807.898 68.992 L 807.898 68.992 Q 809.125 67.344 809.125 64.094 Z  M 823.859 55.688 L 823.859 58.375 L 823.859 58.375 Q 823.203 58.266 822.438 58.266 L 822.438 58.266 L 822.438 58.266 Q 819.594 58.266 818.578 60.688 L 818.578 60.688 L 818.578 72.688 L 815.688 72.688 L 815.688 55.781 L 818.5 55.781 L 818.547 57.734 L 818.547 57.734 Q 819.969 55.469 822.578 55.469 L 822.578 55.469 L 822.578 55.469 Q 823.422 55.469 823.859 55.688 L 823.859 55.688 L 823.859 55.688 Z  M 829.656 55.781 L 829.656 72.688 L 826.766 72.688 L 826.766 55.781 L 829.656 55.781 L 829.656 55.781 Z  M 826.531 51.297 L 826.531 51.297 L 826.531 51.297 Q 826.531 50.594 826.961 50.109 L 826.961 50.109 L 826.961 50.109 Q 827.391 49.625 828.234 49.625 L 828.234 49.625 L 828.234 49.625 Q 829.078 49.625 829.516 50.109 L 829.516 50.109 L 829.516 50.109 Q 829.953 50.594 829.953 51.297 L 829.953 51.297 L 829.953 51.297 Q 829.953 52 829.516 52.469 L 829.516 52.469 L 829.516 52.469 Q 829.078 52.938 828.234 52.938 L 828.234 52.938 L 828.234 52.938 Q 827.391 52.938 826.961 52.469 L 826.961 52.469 L 826.961 52.469 Q 826.531 52 826.531 51.297 Z  M 835.313 51.688 L 838.203 51.688 L 838.203 55.781 L 841.359 55.781 L 841.359 58.016 L 838.203 58.016 L 838.203 68.5 L 838.203 68.5 Q 838.203 69.516 838.625 70.023 L 838.625 70.023 L 838.625 70.023 Q 839.047 70.531 840.063 70.531 L 840.063 70.531 L 840.063 70.531 Q 840.563 70.531 841.438 70.344 L 841.438 70.344 L 841.438 72.688 L 841.438 72.688 Q 840.297 73 839.219 73 L 839.219 73 L 839.219 73 Q 837.281 73 836.297 71.828 L 836.297 71.828 L 836.297 71.828 Q 835.313 70.656 835.313 68.5 L 835.313 68.5 L 835.313 58.016 L 832.234 58.016 L 832.234 55.781 L 835.313 55.781 L 835.313 51.688 L 835.313 51.688 Z  M 851.75 73 L 851.75 73 L 851.75 73 Q 848.313 73 846.156 70.742 L 846.156 70.742 L 846.156 70.742 Q 844 68.484 844 64.703 L 844 64.703 L 844 64.172 L 844 64.172 Q 844 61.656 844.961 59.68 L 844.961 59.68 L 844.961 59.68 Q 845.922 57.703 847.648 56.586 L 847.648 56.586 L 847.648 56.586 Q 849.375 55.469 851.391 55.469 L 851.391 55.469 L 851.391 55.469 Q 854.688 55.469 856.516 57.641 L 856.516 57.641 L 856.516 57.641 Q 858.344 59.813 858.344 63.859 L 858.344 63.859 L 858.344 65.063 L 846.891 65.063 L 846.891 65.063 Q 846.953 67.563 848.352 69.102 L 848.352 69.102 L 848.352 69.102 Q 849.75 70.641 851.906 70.641 L 851.906 70.641 L 851.906 70.641 Q 853.438 70.641 854.5 70.016 L 854.5 70.016 L 854.5 70.016 Q 855.563 69.391 856.359 68.359 L 856.359 68.359 L 858.125 69.734 L 858.125 69.734 Q 856 73 851.75 73 Z  M 851.391 57.844 L 851.391 57.844 L 851.391 57.844 Q 849.641 57.844 848.453 59.117 L 848.453 59.117 L 848.453 59.117 Q 847.266 60.391 846.984 62.688 L 846.984 62.688 L 855.453 62.688 L 855.453 62.469 L 855.453 62.469 Q 855.328 60.266 854.266 59.055 L 854.266 59.055 L 854.266 59.055 Q 853.203 57.844 851.391 57.844 Z  M 871.531 68.203 L 871.531 68.203 L 871.531 68.203 Q 871.531 67.031 870.648 66.383 L 870.648 66.383 L 870.648 66.383 Q 869.766 65.734 867.57 65.266 L 867.57 65.266 L 867.57 65.266 Q 865.375 64.797 864.086 64.141 L 864.086 64.141 L 864.086 64.141 Q 862.797 63.484 862.18 62.578 L 862.18 62.578 L 862.18 62.578 Q 861.563 61.672 861.563 60.422 L 861.563 60.422 L 861.563 60.422 Q 861.563 58.344 863.32 56.906 L 863.32 56.906 L 863.32 56.906 Q 865.078 55.469 867.813 55.469 L 867.813 55.469 L 867.813 55.469 Q 870.688 55.469 872.477 56.953 L 872.477 56.953 L 872.477 56.953 Q 874.266 58.438 874.266 60.75 L 874.266 60.75 L 871.359 60.75 L 871.359 60.75 Q 871.359 59.563 870.352 58.703 L 870.352 58.703 L 870.352 58.703 Q 869.344 57.844 867.813 57.844 L 867.813 57.844 L 867.813 57.844 Q 866.234 57.844 865.344 58.531 L 865.344 58.531 L 865.344 58.531 Q 864.453 59.219 864.453 60.328 L 864.453 60.328 L 864.453 60.328 Q 864.453 61.375 865.281 61.906 L 865.281 61.906 L 865.281 61.906 Q 866.109 62.438 868.273 62.922 L 868.273 62.922 L 868.273 62.922 Q 870.438 63.406 871.781 64.078 L 871.781 64.078 L 871.781 64.078 Q 873.125 64.75 873.773 65.695 L 873.773 65.695 L 873.773 65.695 Q 874.422 66.641 874.422 68 L 874.422 68 L 874.422 68 Q 874.422 70.266 872.609 71.633 L 872.609 71.633 L 872.609 71.633 Q 870.797 73 867.906 73 L 867.906 73 L 867.906 73 Q 865.875 73 864.313 72.281 L 864.313 72.281 L 864.313 72.281 Q 862.75 71.563 861.867 70.273 L 861.867 70.273 L 861.867 70.273 Q 860.984 68.984 860.984 67.484 L 860.984 67.484 L 863.875 67.484 L 863.875 67.484 Q 863.953 68.938 865.039 69.789 L 865.039 69.789 L 865.039 69.789 Q 866.125 70.641 867.906 70.641 L 867.906 70.641 L 867.906 70.641 Q 869.547 70.641 870.539 69.977 L 870.539 69.977 L 870.539 69.977 Q 871.531 69.313 871.531 68.203 Z  M 685.547 49.938 L 685.547 72.688 L 681.609 72.688 L 681.609 62.578 L 671.438 62.578 L 671.438 72.688 L 667.484 72.688 L 667.484 49.938 L 671.438 49.938 L 671.438 59.406 L 681.609 59.406 L 681.609 49.938 L 685.547 49.938 L 685.547 49.938 Z  M 700.188 72.688 L 700.094 71.031 L 700.094 71.031 Q 698.422 73 695.344 73 L 695.344 73 L 695.344 73 Q 692.594 73 691.18 71.391 L 691.18 71.391 L 691.18 71.391 Q 689.766 69.781 689.766 66.734 L 689.766 66.734 L 689.766 55.781 L 693.563 55.781 L 693.563 66.688 L 693.563 66.688 Q 693.563 69.906 696.234 69.906 L 696.234 69.906 L 696.234 69.906 Q 699 69.906 699.969 67.922 L 699.969 67.922 L 699.969 55.781 L 703.766 55.781 L 703.766 72.688 L 700.188 72.688 L 700.188 72.688 Z  M 707.625 55.781 L 711.203 55.781 L 711.313 57.547 L 711.313 57.547 Q 713.094 55.469 716.188 55.469 L 716.188 55.469 L 716.188 55.469 Q 719.578 55.469 720.828 58.063 L 720.828 58.063 L 720.828 58.063 Q 722.672 55.469 726.016 55.469 L 726.016 55.469 L 726.016 55.469 Q 728.813 55.469 730.18 57.016 L 730.18 57.016 L 730.18 57.016 Q 731.547 58.563 731.578 61.578 L 731.578 61.578 L 731.578 72.688 L 727.781 72.688 L 727.781 61.688 L 727.781 61.688 Q 727.781 60.078 727.078 59.328 L 727.078 59.328 L 727.078 59.328 Q 726.375 58.578 724.75 58.578 L 724.75 58.578 L 724.75 58.578 Q 723.453 58.578 722.633 59.273 L 722.633 59.273 L 722.633 59.273 Q 721.813 59.969 721.484 61.094 L 721.484 61.094 L 721.5 72.688 L 717.703 72.688 L 717.703 61.563 L 717.703 61.563 Q 717.625 58.578 714.656 58.578 L 714.656 58.578 L 714.656 58.578 Q 712.375 58.578 711.422 60.438 L 711.422 60.438 L 711.422 72.688 L 707.625 72.688 L 707.625 55.781 L 707.625 55.781 Z  M 749.453 72.688 L 745.578 72.688 L 745.578 72.688 Q 745.328 72.203 745.141 71.109 L 745.141 71.109 L 745.141 71.109 Q 743.328 73 740.703 73 L 740.703 73 L 740.703 73 Q 738.156 73 736.547 71.547 L 736.547 71.547 L 736.547 71.547 Q 734.938 70.094 734.938 67.953 L 734.938 67.953 L 734.938 67.953 Q 734.938 65.25 736.945 63.805 L 736.945 63.805 L 736.945 63.805 Q 738.953 62.359 742.688 62.359 L 742.688 62.359 L 745.016 62.359 L 745.016 61.25 L 745.016 61.25 Q 745.016 59.938 744.281 59.148 L 744.281 59.148 L 744.281 59.148 Q 743.547 58.359 742.047 58.359 L 742.047 58.359 L 742.047 58.359 Q 740.75 58.359 739.922 59.008 L 739.922 59.008 L 739.922 59.008 Q 739.094 59.656 739.094 60.656 L 739.094 60.656 L 735.297 60.656 L 735.297 60.656 Q 735.297 59.266 736.219 58.055 L 736.219 58.055 L 736.219 58.055 Q 737.141 56.844 738.727 56.156 L 738.727 56.156 L 738.727 56.156 Q 740.313 55.469 742.266 55.469 L 742.266 55.469 L 742.266 55.469 Q 745.234 55.469 747 56.961 L 747 56.961 L 747 56.961 Q 748.766 58.453 748.813 61.156 L 748.813 61.156 L 748.813 68.781 L 748.813 68.781 Q 748.813 71.063 749.453 72.422 L 749.453 72.422 L 749.453 72.688 L 749.453 72.688 Z  M 741.406 69.953 L 741.406 69.953 L 741.406 69.953 Q 742.531 69.953 743.523 69.406 L 743.523 69.406 L 743.523 69.406 Q 744.516 68.859 745.016 67.938 L 745.016 67.938 L 745.016 64.75 L 742.969 64.75 L 742.969 64.75 Q 740.859 64.75 739.797 65.484 L 739.797 65.484 L 739.797 65.484 Q 738.734 66.219 738.734 67.563 L 738.734 67.563 L 738.734 67.563 Q 738.734 68.656 739.461 69.305 L 739.461 69.305 L 739.461 69.305 Q 740.188 69.953 741.406 69.953 Z  M 752.734 55.781 L 756.313 55.781 L 756.422 57.734 L 756.422 57.734 Q 758.297 55.469 761.344 55.469 L 761.344 55.469 L 761.344 55.469 Q 766.625 55.469 766.719 61.516 L 766.719 61.516 L 766.719 72.688 L 762.922 72.688 L 762.922 61.734 L 762.922 61.734 Q 762.922 60.125 762.227 59.352 L 762.227 59.352 L 762.227 59.352 Q 761.531 58.578 759.953 58.578 L 759.953 58.578 L 759.953 58.578 Q 757.656 58.578 756.531 60.656 L 756.531 60.656 L 756.531 72.688 L 752.734 72.688 L 752.734 55.781 L 752.734 55.781 Z " fill="rgb(255,255,255)"/></g></g></svg>