<svg xmlns="http://www.w3.org/2000/svg" width="96" height="96" fill="none">
  <rect width="96" height="96" fill="#fff" rx="10" />
  <path fill="#0284C7"
    d="M0 10C0 4.477 4.477 0 10 0h76c5.523 0 10 4.477 10 10v26.377c0 3.98-5.3 5.594-7.684 2.407-3.717-4.969-7.474-9.368-11.027-12.545a1.244 1.244 0 0 1-.388-1.109c.806-5.603-2.861-10.767-8.19-11.534-4.082-.587-7.954 1.573-9.907 5.133-.813 1.483-2.14 2.727-3.809 2.995-8.346 1.34-12.92 4.26-15.745 6.556-2.987 2.426-6.252 7.223-7.715 9.497a4.19 4.19 0 0 1-2.189 1.72L13.861 44.66c-1.573.525-2.687 1.977-2.62 3.633.666 16.688 14.792 19.175 26.231 21.188 5.846 1.03 10.99 1.935 13.278 4.55 2.374 2.713 6.145 8.988 10.093 16.097 1.47 2.645-.46 5.873-3.485 5.873H10C4.477 96 0 91.523 0 86V10Z" />
  <path fill="#0284C7" d="M43.5 38.5a5 5 0 1 0 10 0 5 5 0 0 0-10 0Z" />
</svg>
