<svg xmlns="http://www.w3.org/2000/svg" width="182" height="32" fill="none">
  <path fill="#1C1E21"
    d="M2 0a2 2 0 0 0-2 2v28a2 2 0 0 0 2 2h17.12c1.008 0 1.65-1.076 1.161-1.958-1.316-2.37-2.573-4.461-3.364-5.366-.763-.87-2.478-1.173-4.426-1.516-3.813-.671-8.522-1.5-8.744-7.063-.022-.552.35-1.036.873-1.21l5.162-1.721c.302-.1.557-.306.73-.574.487-.758 1.576-2.357 2.571-3.165.942-.766 2.466-1.74 5.249-2.186.556-.09.998-.504 1.27-.998.65-1.187 1.941-1.907 3.301-1.711 1.777.256 3 1.977 2.73 3.845a.415.415 0 0 0 .13.37c1.184 1.058 2.436 2.525 3.676 4.18.794 1.063 2.561.526 2.561-.801V2a2 2 0 0 0-2-2H2Z" />
  <path fill="#1C1E21" d="M16.167 14.5a1.667 1.667 0 1 1 0-3.333 1.667 1.667 0 0 1 0 3.333Z" />
  <path fill="#1C1E21" fill-rule="evenodd"
    d="M42.667 4.833v24h7.516c.223 0 .634-.005 1.234-.016a14.524 14.524 0 0 0 1.75-.134c1.877-.233 3.455-.9 4.733-2 1.289-1.11 2.261-2.516 2.917-4.216.655-1.711.983-3.59.983-5.634 0-2.033-.328-3.9-.983-5.6C60.16 9.523 59.189 8.111 57.9 7c-1.278-1.111-2.856-1.783-4.733-2.017a14.53 14.53 0 0 0-1.75-.133c-.6-.011-1.011-.017-1.234-.017h-7.516Zm7.516 20.684h-3.95V8.15h3.95c.367 0 .811.011 1.334.033.533.011 1 .056 1.4.134 1.2.222 2.177.744 2.933 1.566.767.811 1.333 1.823 1.7 3.034.367 1.2.55 2.505.55 3.916 0 1.367-.178 2.656-.533 3.867-.356 1.211-.917 2.233-1.684 3.067-.755.822-1.744 1.35-2.966 1.583-.4.067-.861.111-1.384.133-.522.023-.972.034-1.35.034Z"
    clip-rule="evenodd" />
  <path fill="#1C1E21"
    d="M66.014 4.5v3.383h3.484V4.5h-3.484ZM66.014 10.833v18h3.484v-18h-3.484ZM77.503 28.1c1.288.822 2.855 1.233 4.7 1.233 1.933 0 3.577-.466 4.933-1.4 1.356-.944 2.328-2.294 2.917-4.05l-3.534-.833c-.366.967-.9 1.711-1.6 2.233-.689.511-1.594.767-2.716.767-1.645 0-2.89-.572-3.734-1.717-.833-1.144-1.255-2.644-1.266-4.5.01-1.2.194-2.266.55-3.2.355-.933.9-1.666 1.633-2.2.733-.544 1.672-.816 2.817-.816 1.01 0 1.905.283 2.683.85.789.555 1.356 1.339 1.7 2.35l3.467-1c-.445-1.7-1.367-3.04-2.767-4.017-1.389-.978-3.067-1.467-5.033-1.467-1.823 0-3.384.406-4.684 1.217-1.3.811-2.3 1.933-3 3.367-.7 1.422-1.055 3.06-1.066 4.916.01 1.823.355 3.45 1.033 4.884.689 1.433 1.678 2.56 2.967 3.383Z" />
  <path fill="#1C1E21" fill-rule="evenodd"
    d="M96.226 28.167c1.356.777 2.928 1.166 4.717 1.166 1.744 0 3.328-.439 4.75-1.316 1.422-.89 2.483-2.14 3.183-3.75l-3.416-1.084c-.445.923-1.067 1.634-1.867 2.134-.789.489-1.728.733-2.817.733-1.655 0-2.922-.539-3.8-1.617-.726-.9-1.152-2.106-1.277-3.616h13.411c.133-2.156-.123-4.017-.767-5.584-.633-1.566-1.595-2.772-2.883-3.616-1.289-.856-2.85-1.284-4.684-1.284-1.755 0-3.294.395-4.616 1.184-1.323.789-2.356 1.905-3.1 3.35-.734 1.444-1.1 3.15-1.1 5.116 0 1.856.372 3.49 1.116 4.9a8.296 8.296 0 0 0 3.15 3.284ZM105.54 18.1c-.157-1.37-.528-2.43-1.114-3.183-.766-1-1.939-1.5-3.516-1.5-1.745 0-3.056.55-3.934 1.65-.615.77-1.015 1.782-1.199 3.033h9.763ZM122.282 4.833h-9.433v24h10.333c1.522 0 2.817-.289 3.884-.866 1.077-.59 1.894-1.406 2.45-2.45.566-1.045.85-2.273.85-3.684 0-1.455-.412-2.727-1.234-3.816-.615-.824-1.43-1.445-2.444-1.863a4.82 4.82 0 0 0 1.561-1.47c.655-.945.983-2.078.983-3.4a6.49 6.49 0 0 0-.783-3.1c-.522-.99-1.3-1.795-2.333-2.417-1.034-.623-2.312-.934-3.834-.934Zm.367 20.684h-6.267v-7.6h6.484c.8 0 1.494.172 2.083.516.6.334 1.055.795 1.367 1.384.322.577.483 1.227.483 1.95 0 .777-.183 1.45-.55 2.016-.356.556-.85.984-1.483 1.284-.623.3-1.328.45-2.117.45Zm-.417-10.884h-5.85V8.117h5.85c1.045 0 1.878.3 2.5.9.622.6.934 1.366.934 2.3 0 .7-.156 1.3-.467 1.8-.3.489-.711.866-1.233 1.133-.512.256-1.089.383-1.734.383ZM136.949 28.167c1.355.777 2.928 1.166 4.717 1.166 1.744 0 3.327-.439 4.75-1.316 1.422-.89 2.483-2.14 3.183-3.75l-3.417-1.084c-.444.923-1.066 1.634-1.866 2.134-.789.489-1.728.733-2.817.733-1.656 0-2.922-.539-3.8-1.617-.727-.9-1.152-2.106-1.278-3.616h13.411c.134-2.156-.122-4.017-.766-5.584-.634-1.566-1.595-2.772-2.884-3.616-1.289-.856-2.85-1.284-4.683-1.284-1.756 0-3.295.395-4.617 1.184-1.322.789-2.355 1.905-3.1 3.35-.733 1.444-1.1 3.15-1.1 5.116 0 1.856.372 3.49 1.117 4.9a8.29 8.29 0 0 0 3.15 3.284Zm9.314-10.067c-.157-1.37-.529-2.43-1.114-3.183-.767-1-1.939-1.5-3.517-1.5-1.744 0-3.055.55-3.933 1.65-.615.77-1.015 1.782-1.199 3.033h9.763ZM154.979 28.6c.9.489 2.017.733 3.35.733 1.678 0 3.089-.333 4.234-1 .865-.507 1.615-1.21 2.25-2.11v2.61h3.083V17.75c0-.756-.033-1.461-.1-2.117a5.463 5.463 0 0 0-.533-1.866 5.182 5.182 0 0 0-2.634-2.6c-1.188-.556-2.589-.834-4.2-.834-2.077 0-3.744.456-5 1.367-1.244.911-2.089 2.139-2.533 3.683l3.25 1c.311-1.01.861-1.733 1.65-2.166a5.207 5.207 0 0 1 2.6-.667c1.5 0 2.556.344 3.167 1.033.543.592.84 1.463.893 2.613-.683.096-1.369.192-2.06.287a92.61 92.61 0 0 0-3.183.5 25.612 25.612 0 0 0-2.717.617c-.922.3-1.7.694-2.333 1.183a4.628 4.628 0 0 0-1.434 1.75c-.322.69-.483 1.49-.483 2.4 0 .978.228 1.878.683 2.7.467.811 1.15 1.467 2.05 1.967Zm6.517-2.633c-.711.344-1.561.516-2.55.516-.744 0-1.356-.116-1.833-.35-.478-.233-.834-.544-1.067-.933-.233-.4-.35-.833-.35-1.3 0-.478.106-.883.317-1.217.222-.333.516-.616.883-.85a6.551 6.551 0 0 1 1.283-.6 14.73 14.73 0 0 1 1.934-.45c.733-.133 1.55-.266 2.45-.4.578-.085 1.197-.178 1.857-.277-.008.293-.022.63-.041 1.01a5.962 5.962 0 0 1-.316 1.8c-.134.59-.417 1.156-.85 1.7-.434.545-1.006.995-1.717 1.35Z"
    clip-rule="evenodd" />
  <path fill="#1C1E21"
    d="M175.324 10.833h-3.1v18h3.517V19.75c0-.711.072-1.383.216-2.017a5.685 5.685 0 0 1 .7-1.75 4.434 4.434 0 0 1 1.35-1.333 4.304 4.304 0 0 1 1.967-.683c.722-.067 1.378-.023 1.967.133v-3.267a6.625 6.625 0 0 0-1.7-.083 6.65 6.65 0 0 0-1.734.333 5.266 5.266 0 0 0-1.516.767 4.858 4.858 0 0 0-1.234 1.2 6.461 6.461 0 0 0-.433.664v-2.88Z" />
</svg>
