<svg xmlns="http://www.w3.org/2000/svg" fill="none" viewBox="0 0 112 112">
  <path fill="#fff" d="M0 0h112v112H0z" />
  <path fill="#0284C7"
    d="M0 0h112v42.44c0 4.644-6.183 6.526-8.965 2.808-4.337-5.797-8.719-10.93-12.864-14.636a1.451 1.451 0 0 1-.454-1.293c.941-6.537-3.337-12.562-9.555-13.457-4.761-.685-9.279 1.835-11.557 5.989-.95 1.73-2.496 3.18-4.444 3.493-9.738 1.564-15.072 4.97-18.37 7.649-3.484 2.831-7.294 8.427-9 11.08a4.888 4.888 0 0 1-2.554 2.007l-18.066 6.023c-1.835.611-3.134 2.305-3.057 4.237.777 19.47 17.258 22.371 30.604 24.72 6.82 1.201 12.821 2.258 15.49 5.308 2.77 3.165 7.17 10.486 11.776 18.78 1.714 3.086-.536 6.852-4.066 6.852H0V0Z" />
  <path fill="#0284C7" d="M50.75 44.917a5.833 5.833 0 1 0 11.667 0 5.833 5.833 0 0 0-11.667 0Z" />
</svg>
